<?xml version="1.0" encoding="UTF-8"?>
<svg version="1.1" xmlns="http://www.w3.org/2000/svg" width="512" height="512">
<path d="M0 0 C10.09859613 0.61400084 20.18955048 1.00526184 30.30346292 1.25619018 C31.38397248 1.28308239 31.38397248 1.28308239 32.48631052 1.31051788 C35.38457306 1.3819002 38.28286362 1.45194638 41.18120064 1.52023898 C63.2115902 2.04062428 85.23993234 2.7404333 107.24352068 3.96227157 C109.51431604 4.08675569 111.7855142 4.20413382 114.05707544 4.31375778 C117.16243871 4.4666571 120.26466346 4.64885286 123.36787027 4.84011352 C124.25759147 4.87943677 125.14731267 4.91876002 126.06399512 4.95927489 C134.52918646 5.54914041 141.56137549 8.63369563 147.46728128 14.78548706 C152.67616413 20.78786066 153.97902821 27.67359561 153.9285087 35.33797729 C153.93515553 36.1411054 153.94180235 36.94423351 153.9486506 37.77169883 C153.96718681 40.44179121 153.96468169 43.11143176 153.96215433 45.78158081 C153.97117722 47.70392505 153.98150574 49.62626353 153.99303812 51.54859436 C154.02057221 56.75251539 154.02988779 61.95632715 154.03589219 67.16031158 C154.04528516 72.60426162 154.07148934 78.04813033 154.09589761 83.49203002 C154.13954082 93.79425233 154.16810121 104.09645884 154.191221 114.39874542 C154.21828431 126.13031446 154.26219516 137.86180161 154.30750972 149.59331214 C154.40032482 173.71982602 154.47201996 197.84636559 154.52978128 221.97298706 C155.42752268 222.45201477 156.32526407 222.93104248 157.25020975 223.42458618 C158.43702947 224.06010758 159.62380489 224.6957117 160.810543 225.33138549 C161.40119043 225.64626922 161.99183786 225.96115295 162.6003837 226.28557861 C185.32887141 238.47601448 201.51339933 259.56891699 209.34228128 283.97298706 C216.60367613 308.06617408 215.47891446 336.24921418 203.55566019 358.81673706 C202.0379902 361.45590699 200.43695796 364.01929647 198.75243753 366.55501831 C197.31834514 368.82142876 197.31834514 368.82142876 197.80227274 370.94280517 C199.02166712 374.34564134 201.66417892 376.6593022 204.14696878 379.19954956 C204.71875864 379.78843963 205.29054849 380.37732971 205.87966532 380.98406494 C207.09436628 382.22708523 208.31347334 383.46581282 209.53661722 384.70052612 C211.38514166 386.57803944 213.19912493 388.48503037 215.01415628 390.39486206 C222.99829434 398.72719853 222.99829434 398.72719853 233.9206962 401.51574218 C236.91627799 402.040721 237.96615034 402.78605147 240.16479105 404.84066284 C240.85325113 405.47855743 241.54171121 406.11645202 242.25103372 406.77367675 C243.00302042 407.49944915 243.75500711 408.22522155 244.52978128 408.97298706 C245.76676767 410.16086318 245.76676767 410.16086318 247.02874368 411.37273681 C249.86619529 414.1277085 252.68072418 416.90491572 255.48681253 419.69173706 C255.99426193 420.19511093 256.50171133 420.6984848 257.02453798 421.21711242 C259.70230035 423.87418988 262.37690059 426.53440498 265.04906839 429.19710815 C267.79542467 431.93234103 270.5532787 434.65567689 273.31376737 437.37663543 C275.45062802 439.48730295 277.57850849 441.60685479 279.70410341 443.72886169 C280.71696805 444.73687994 281.73318655 445.74154061 282.75290483 446.74262512 C293.91006592 457.70819803 293.91006592 457.70819803 294.96337503 466.65658081 C294.97308728 475.99005115 294.25678597 481.65750794 288.15478128 488.72298706 C281.93370661 494.05533678 277.51270027 496.12978198 269.34228128 496.28548706 C268.06997659 496.32286987 266.79767191 496.36025268 265.48681253 496.39876831 C254.90413009 495.26005914 248.53403066 487.56759654 241.44384378 480.41829956 C240.29479869 479.27195317 239.14516073 478.12620077 237.99496073 476.98101318 C235.59653209 474.58845697 233.20542497 472.1888791 230.81933206 469.78402221 C227.76637575 466.70822634 224.69573928 463.65080949 221.61942095 460.59840095 C219.24609536 458.23955018 216.88240453 455.8712296 214.52149194 453.49996078 C213.3929463 452.36875521 212.26144487 451.24049023 211.12690729 450.11529434 C209.54247586 448.54106174 207.97149557 446.95450186 206.40331644 445.36410034 C205.50811289 444.46571441 204.61290933 443.56732849 203.6905784 442.64171875 C200.56935822 438.78679912 199.6327576 435.42266363 199.28490824 430.52572143 C198.25798662 425.69424281 195.91225026 423.50471592 192.44775003 420.12923706 C191.83716242 419.51528076 191.2265748 418.90132446 190.59748453 418.26876342 C189.30931718 416.98089398 188.01370067 415.70043733 186.71117777 414.42708862 C184.71467603 412.47043381 182.74936627 410.48591441 180.78564066 408.49642456 C179.52892715 407.24726564 178.27052021 405.99980758 177.01025003 404.75423706 C176.42156641 404.15856933 175.83288278 403.56290161 175.22636026 402.94918334 C173.38947716 401.11746775 173.38947716 401.11746775 170.52978128 398.97298706 C166.88963699 399.45156003 164.06689425 401.23282697 160.90478128 403.03548706 C155.74860481 405.97298706 155.74860481 405.97298706 153.52978128 405.97298706 C153.55596536 407.10204467 153.58214945 408.23110229 153.60912699 409.39437377 C153.70033553 413.62479987 153.75728445 417.85514096 153.80443949 422.08626831 C153.82942407 423.90965968 153.86342407 425.73295254 153.90697855 427.55599487 C154.18212069 439.37739623 154.10750316 448.02929247 146.42431253 457.59408081 C145.39370706 458.4932019 145.39370706 458.4932019 144.34228128 459.41048706 C143.66810159 460.02794799 142.99392191 460.64540893 142.29931253 461.28158081 C134.4207076 466.09319708 125.97309566 466.40702661 116.96740335 466.35393798 C115.12144658 466.36095794 115.12144658 466.36095794 113.23819774 466.36811972 C109.84804539 466.37796596 106.45839664 466.37448964 103.06827563 466.36516106 C99.40222385 466.3583439 95.73621451 466.36886495 92.0701713 466.37710083 C84.89857944 466.39041203 77.72708199 466.38757211 70.5554865 466.3788629 C64.72485315 466.37207645 58.89424619 466.37117379 53.06361002 466.37443435 C52.23246841 466.37489405 51.40132681 466.37535375 50.54499909 466.37582738 C48.85633474 466.3767866 47.16767039 466.37775924 45.47900605 466.37874515 C29.65962076 466.38729139 13.8402877 466.37747695 -1.97908902 466.36134405 C-15.54077429 466.34794157 -29.1023825 466.35026988 -42.66406637 466.36410034 C-58.42842968 466.3801697 -74.19274726 466.38646749 -89.95711762 466.37726355 C-91.63942756 466.37630794 -93.3217375 466.37536483 -95.00404745 466.37443435 C-95.83168765 466.37397153 -96.65932784 466.3735087 -97.51204804 466.37303185 C-103.33290923 466.37044603 -109.15374131 466.37480415 -114.97459799 466.38187301 C-122.07225029 466.39030329 -129.16980311 466.38797583 -136.26744407 466.37203078 C-139.88593421 466.36416856 -143.50425872 466.36102126 -147.12274748 466.37097824 C-151.05120475 466.38162433 -154.97939321 466.36887741 -158.90784079 466.35393798 C-160.04306661 466.36063015 -161.17829244 466.36732231 -162.34791905 466.37421727 C-171.45394271 466.30715309 -179.93450405 465.25359966 -186.84521872 458.84798706 C-187.63670309 458.14415893 -188.42818747 457.44033081 -189.24365622 456.71517456 C-195.63810751 448.83990296 -196.17149623 440.60142681 -196.48283774 430.75530517 C-196.54123552 429.31885645 -196.60103397 427.88246411 -196.66210258 426.44612646 C-196.8237587 422.51495189 -196.96083543 418.58326311 -197.09254593 414.65098488 C-197.17886412 412.13231767 -197.27218426 409.61400481 -197.36782652 407.09567535 C-198.62676341 373.91231923 -199.33788156 340.71429014 -199.89190584 307.51245201 C-199.96376464 303.28328943 -200.03705185 299.05415427 -200.11157614 294.82503784 C-200.13003666 293.77422856 -200.14849718 292.72341928 -200.1675171 291.64076729 C-200.4343521 276.87346894 -200.89643585 262.12381266 -201.51827519 247.367356 C-208.39262773 84.10123848 -208.39262773 84.10123848 -171.07961553 41.73334146 C-125.81518525 -6.64976259 -60.95562699 -3.75276342 0 0 Z M-107.47021872 15.97298706 C-107.47386435 16.65457382 -107.47750998 17.33616058 -107.48126608 18.03840148 C-107.52321951 25.16073688 -107.59265555 32.28243558 -107.67773825 39.40438354 C-107.70806671 42.05913517 -107.72713011 44.7132846 -107.74121481 47.36825073 C-107.76272769 51.19395709 -107.80942472 55.01867347 -107.86084372 58.84408081 C-107.86207236 60.02256088 -107.86330099 61.20104095 -107.86456686 62.41523254 C-108.03303442 71.98815624 -110.23113135 79.31399429 -116.75537497 86.46908081 C-121.92414408 91.00205599 -128.17455555 93.07170696 -134.95141989 93.17830932 C-136.63282316 93.20822715 -136.63282316 93.20822715 -138.34819418 93.23874938 C-140.16236586 93.26381813 -140.16236586 93.26381813 -142.01318747 93.28939331 C-143.25192114 93.3101744 -144.49065481 93.3309555 -145.76692587 93.35236633 C-149.05647128 93.40670503 -152.34604598 93.45694656 -155.63568503 93.50521362 C-158.99399686 93.55549351 -162.35221918 93.61114567 -165.71045309 93.66634643 C-172.2969703 93.77351753 -178.88355456 93.87528841 -185.47021872 93.97298706 C-185.51599069 137.53298016 -185.55123515 181.09297072 -185.57234938 224.65298313 C-185.57485081 229.79497015 -185.57743945 234.93695713 -185.580082 240.07894409 C-185.58060662 241.10262647 -185.58113124 242.12630885 -185.58167176 243.18101192 C-185.59037573 259.75902185 -185.60614567 276.33701792 -185.62452431 292.91501963 C-185.64322356 309.92400405 -185.6543355 326.9329812 -185.65839571 343.94197547 C-185.66114071 354.43846458 -185.66981246 364.9349145 -185.68605165 375.43139154 C-185.69661883 382.62800353 -185.69981994 389.82459524 -185.69722147 397.02121443 C-185.69593977 401.17402882 -185.69791264 405.32677471 -185.70862967 409.47957695 C-185.71837403 413.28326784 -185.71884593 417.08684427 -185.71201651 420.89054048 C-185.71077359 422.91468669 -185.71938874 424.9388316 -185.72838134 426.96295822 C-185.82238247 439.03075744 -185.82238247 439.03075744 -180.22021872 449.34798706 C-179.37717184 450.31865112 -179.37717184 450.31865112 -178.51709372 451.30892456 C-172.7227724 456.01957509 -165.51534292 455.2595967 -158.45132834 455.24041259 C-156.62063207 455.24720926 -156.62063207 455.24720926 -154.75295204 455.25414324 C-151.37281185 455.26460463 -147.99288465 455.26611461 -144.61274344 455.26375449 C-140.96438457 455.26334594 -137.31605732 455.27438904 -133.66771322 455.28386962 C-126.52300656 455.30047174 -119.3783329 455.3059788 -112.23360856 455.30709438 C-106.42574873 455.30804514 -100.61789978 455.31215683 -94.81004339 455.31849563 C-78.34009108 455.33610517 -61.87016481 455.34533484 -45.400203 455.34383468 C-44.51258553 455.34375477 -43.62496806 455.34367486 -42.71045309 455.34359252 C-41.37739961 455.34346988 -41.37739961 455.34346988 -40.01741575 455.34334476 C-25.61250259 455.34253174 -11.20769396 455.36167431 3.19718896 455.38986926 C17.99154735 455.41859787 32.78585475 455.4324096 47.58024174 455.43068171 C55.8847899 455.43001784 64.18922844 455.43550871 72.49375147 455.45703781 C79.56375532 455.47524921 86.63359986 455.47959725 93.70361702 455.46601896 C97.30973586 455.4594893 100.91554905 455.45937169 104.52163881 455.47672546 C108.4335419 455.4953571 112.34499879 455.48290165 116.25692362 455.46746337 C117.96092075 455.48289406 117.96092075 455.48289406 119.69934207 455.49863648 C126.83401189 455.43636276 132.80549903 454.61266132 138.08315879 449.45489907 C142.18545796 444.69229036 142.6715157 441.63534761 142.62743753 435.55892456 C142.62602258 434.82928497 142.62460764 434.09964538 142.62314981 433.3478955 C142.61754659 431.0145512 142.60499363 428.68130241 142.59228128 426.34798706 C142.58726669 424.76725927 142.58270371 423.18652999 142.57860941 421.60579956 C142.56757612 417.72815852 142.55030939 413.85058899 142.52978128 409.97298706 C141.64137552 410.18157348 140.75296976 410.39015991 139.83764261 410.60506713 C138.66999368 410.87730102 137.50234476 411.14953491 136.29931253 411.43001831 C135.14278177 411.70047973 133.98625101 411.97094116 132.79467386 412.24959838 C108.49572092 417.63341634 81.74096373 412.71979537 60.46728128 400.03548706 C36.95585648 384.53999796 20.47934514 362.69584391 14.52978128 334.97298706 C9.19176111 307.71994363 14.34040028 280.16885728 29.78661722 257.09554565 C46.75278454 233.00672751 70.76706234 219.46804479 99.52978128 214.44954956 C101.87670594 214.17122836 104.16775436 214.02922579 106.52978128 213.97298706 C107.43212503 213.93431518 108.33446878 213.89564331 109.26415628 213.85579956 C119.05063296 213.62278821 128.723335 214.86485775 138.26342386 217.01253784 C139.46579439 217.28241012 139.46579439 217.28241012 140.69245523 217.55773437 C141.29877283 217.69476776 141.90509043 217.83180114 142.52978128 217.97298706 C142.62322394 193.45138064 142.69376023 168.92980092 142.73702997 144.40805233 C142.7576549 133.02216599 142.78577431 121.63639028 142.83153909 110.25057495 C142.87140882 100.32666089 142.8972146 90.40282696 142.90613526 80.47883505 C142.91134974 75.22416476 142.92360447 69.96972369 142.95270151 64.71512687 C142.97987261 59.76820384 142.98822279 54.82160421 142.98221201 49.87461364 C142.98331148 48.06018396 142.99125524 46.24574335 143.00660318 44.43137825 C143.02655795 41.95050346 143.02170097 39.47084352 143.01079935 36.98993957 C143.02245071 36.27494023 143.03410208 35.55994089 143.04610652 34.82327491 C142.97011892 28.40876617 140.72648352 24.2307088 136.27978128 19.66048706 C129.90092638 15.74618973 122.98573439 15.68457151 115.72216409 15.73247802 C114.28470945 15.72991475 114.28470945 15.72991475 112.81821531 15.72729969 C109.62303503 15.72401846 106.42806706 15.73498599 103.23290628 15.74593627 C100.93618901 15.74650068 98.63947137 15.74618325 96.3427543 15.74505126 C90.11818823 15.74447791 83.89369939 15.75622951 77.66915125 15.77019918 C71.16021486 15.78270937 64.65127666 15.78387727 58.14233011 15.78625 C47.22084802 15.79175809 36.29939442 15.80424695 25.37792581 15.82210815 C14.13150798 15.84048159 2.88509783 15.85463092 -8.361332 15.86312377 C-9.05520018 15.86364922 -9.74906836 15.86417467 -10.46396285 15.86471604 C-13.94508633 15.86732622 -17.42620986 15.86985361 -20.90733343 15.87233984 C-49.76164723 15.89305475 -78.61593229 15.92841412 -107.47021872 15.97298706 Z M59.32665628 266.73470581 C46.72563125 280.87025186 40.9216265 298.88154632 41.27978128 317.61751831 C42.82167954 338.31268395 52.4323035 355.88291383 67.76952738 369.51742065 C82.39615384 381.61228154 101.87537321 386.44392886 120.52978128 384.97298706 C139.73972217 382.45357532 157.30421113 372.38374003 169.34228128 357.28548706 C180.82905247 341.0038749 186.33042286 321.83550711 182.90868753 301.96517456 C179.9152921 287.33079687 173.33166923 274.3391686 162.52978128 263.97298706 C161.42569925 262.82249877 161.42569925 262.82249877 160.29931253 261.64876831 C147.94600546 249.46099969 130.25738391 242.9644955 113.02978128 242.72298706 C92.140822 242.92088246 73.52040684 251.61178273 59.32665628 266.73470581 Z M186.24462503 382.16048706 C185.32810159 383.08861206 184.41157816 384.01673706 183.46728128 384.97298706 C182.08862894 386.36517456 182.08862894 386.36517456 180.68212503 387.78548706 C179.97185159 388.50736206 179.26157816 389.22923706 178.52978128 389.97298706 C183.6342695 396.15433575 189.2127307 401.77121583 194.90478128 407.41048706 C195.83161722 408.33281127 196.75845316 409.25513549 197.71337503 410.20540893 C199.98323974 412.4635733 202.25541666 414.71935647 204.52978128 416.97298706 C207.71064647 415.46352194 209.82848034 413.89356881 212.27978128 411.34798706 C212.89337503 410.71634643 213.50696878 410.08470581 214.13915628 409.43392456 C214.59806253 408.95181518 215.05696878 408.46970581 215.52978128 407.97298706 C213.92578502 403.98045043 211.1280086 401.29848497 208.11962503 398.33236206 C207.59212152 397.80531677 207.06461801 397.27827148 206.52112955 396.73525512 C205.40976206 395.6268998 204.29597402 394.52096695 203.17992777 393.41732299 C201.46454344 391.72027849 199.75737957 390.01528378 198.05126566 388.30892456 C196.97035778 387.23292903 195.88899346 386.15739179 194.80712503 385.08236206 C194.29358972 384.56993957 193.78005441 384.05751709 193.25095743 383.52956665 C189.92431004 379.51716659 189.92431004 379.51716659 186.24462503 382.16048706 Z " fill="#5E6EB5" transform="translate(206.4702187180519,5.027012944221497)"/>
<path d="M0 0 C0.81598663 -0.0066568 1.63197327 -0.0133136 2.47268677 -0.02017212 C4.19221761 -0.03025789 5.91178727 -0.03499041 7.63134766 -0.03466797 C10.24317797 -0.03903801 12.85331216 -0.07539018 15.46484375 -0.11328125 C17.14322345 -0.11915118 18.82161109 -0.12311939 20.5 -0.125 C21.65663651 -0.14655655 21.65663651 -0.14655655 22.8366394 -0.16854858 C29.01934766 -0.11719481 34.37462976 1.48866778 38.94943237 5.8187561 C43.51492625 11.07962873 43.56352554 15.64347791 43.62109375 22.31640625 C43.6291655 23.20322586 43.63723724 24.09004547 43.64555359 25.0037384 C43.65938431 26.88243664 43.67011099 28.7611599 43.67797852 30.63989258 C43.69514425 33.49544799 43.73903328 36.34983106 43.78320312 39.20507812 C43.79333483 41.03384569 43.80184944 42.86262306 43.80859375 44.69140625 C43.82610184 45.53752975 43.84360992 46.38365326 43.86164856 47.25541687 C43.84080249 53.03107043 42.74264775 57.55614581 39.3828125 62.3359375 C33.48758393 67.0280582 28.71619881 67.51112119 21.40234375 67.57421875 C20.07211433 67.58632637 20.07211433 67.58632637 18.7150116 67.59867859 C16.83631336 67.61250931 14.9575901 67.62323599 13.07885742 67.63110352 C10.22330201 67.64826925 7.36891894 67.69215828 4.51367188 67.73632812 C2.68490431 67.74645983 0.85612694 67.75497444 -0.97265625 67.76171875 C-1.81877975 67.77922684 -2.66490326 67.79673492 -3.53666687 67.81477356 C-9.31849112 67.79390522 -13.82651756 66.68568713 -18.6171875 63.3359375 C-23.5241818 57.2965599 -23.78637064 52.24721257 -23.85546875 44.6953125 C-23.8635405 43.85429993 -23.87161224 43.01328735 -23.87992859 42.14678955 C-23.89373962 40.36822553 -23.90447507 38.58963535 -23.91235352 36.81103516 C-23.92386446 35.00138525 -23.94430232 33.19176906 -23.97387695 31.38232422 C-24.01675773 28.75725406 -24.03275078 26.13319035 -24.04296875 23.5078125 C-24.06047684 22.70857361 -24.07798492 21.90933472 -24.09602356 21.08587646 C-24.06982046 14.21353826 -22.14612594 8.86487594 -17.2421875 3.9609375 C-11.6259636 0.48422747 -6.42094231 0.01843636 0 0 Z M-10.57592773 13.37719727 C-13.11939503 17.06387113 -13.32537915 19.9745546 -13.24609375 24.3046875 C-13.24850571 25.06261597 -13.25091766 25.82054443 -13.25340271 26.60144043 C-13.25242646 28.19837698 -13.23908559 29.79534829 -13.21411133 31.39208984 C-13.17978557 33.82897515 -13.1934636 36.26223359 -13.21289062 38.69921875 C-13.20599174 40.25522368 -13.19631895 41.81121931 -13.18359375 43.3671875 C-13.18855362 44.09127808 -13.19351349 44.81536865 -13.19862366 45.56140137 C-13.12043176 48.93968901 -12.6472268 51.27722984 -11.10327148 54.29467773 C-7.6465886 57.13287135 -4.55572387 57.03799512 -0.2734375 56.96484375 C0.53266968 56.96725571 1.33877686 56.96966766 2.16931152 56.97215271 C3.87057422 56.9711749 5.57186899 56.95779678 7.27294922 56.93286133 C9.87447369 56.89854749 12.4726012 56.91220354 15.07421875 56.93164062 C16.7291811 56.92474194 18.3841347 56.91506935 20.0390625 56.90234375 C21.20326721 56.90978355 21.20326721 56.90978355 22.39099121 56.91737366 C25.70995011 56.84513149 28.01149267 56.56205498 30.86889648 54.82202148 C33.01601888 51.29611481 32.97484429 48.00215551 32.94921875 43.9921875 C32.95541733 43.18608032 32.96161591 42.37997314 32.96800232 41.54943848 C32.97509374 39.84823818 32.9719382 38.14696838 32.95922852 36.44580078 C32.94535591 33.84407863 32.97944498 31.24594996 33.01757812 28.64453125 C33.01852931 26.98958245 33.01667051 25.33462916 33.01171875 23.6796875 C33.02497696 22.90355103 33.03823517 22.12741455 33.05189514 21.32775879 C32.98892711 17.67242522 32.68739663 15.70689554 30.34155273 12.84985352 C26.64985589 10.96090128 23.47168619 10.74173737 19.4140625 10.76953125 C18.65613403 10.76333267 17.89820557 10.75713409 17.11730957 10.75074768 C15.52043945 10.74366761 13.92349523 10.74679192 12.32666016 10.75952148 C9.88956442 10.77339905 7.45630365 10.73928486 5.01953125 10.70117188 C3.46354073 10.70022066 1.90754543 10.70207964 0.3515625 10.70703125 C-0.37252808 10.69377304 -1.09661865 10.68051483 -1.84265137 10.66685486 C-5.54273376 10.73463161 -7.51098581 11.26266806 -10.57592773 13.37719727 Z " fill="#685FAB" transform="translate(80.6171875,351.6640625)"/>
<path d="M0 0 C0.84671265 -0.00191345 1.69342529 -0.0038269 2.5657959 -0.00579834 C4.35099587 -0.00715569 6.13620587 -0.00349076 7.92138672 0.00488281 C10.64703638 0.01558881 13.37202698 0.00497234 16.09765625 -0.0078125 C17.83593895 -0.00649083 19.57422124 -0.00392827 21.3125 0 C22.52987854 -0.00607269 22.52987854 -0.00607269 23.77185059 -0.01226807 C27.96329289 0.02230531 31.41290319 0.15051057 35.15625 2.265625 C37.15625 5.265625 37.15625 5.265625 36.90625 7.828125 C36.15625 10.265625 36.15625 10.265625 34.15625 12.265625 C31.11691165 12.39221686 28.16824042 12.39974759 25.1328125 12.3203125 C23.28907005 12.29501665 21.44531965 12.27029498 19.6015625 12.24609375 C16.68920282 12.19645684 13.77725282 12.1405333 10.86523438 12.07373047 C8.05856712 12.01331577 5.25242267 11.97777318 2.4453125 11.9453125 C1.14045395 11.90493362 1.14045395 11.90493362 -0.19076538 11.86373901 C-3.89792639 11.83296715 -6.16899025 11.86179005 -9.39331055 13.79150391 C-11.39977077 17.21407046 -11.39900768 20.31473704 -11.33984375 24.171875 C-11.34129898 24.93359009 -11.34275421 25.69530518 -11.34425354 26.48010254 C-11.34259689 28.0871972 -11.3310616 29.6943081 -11.31030273 31.30126953 C-11.28134551 33.75752326 -11.28969746 36.21161769 -11.30273438 38.66796875 C-11.29649651 40.2317813 -11.28810518 41.79558704 -11.27734375 43.359375 C-11.28174721 44.45795837 -11.28174721 44.45795837 -11.28623962 45.57873535 C-11.23167911 48.53604964 -10.95969765 50.98272396 -9.83422852 53.72875977 C-6.69512748 56.15248613 -3.36339655 55.81615181 0.4375 55.76171875 C1.2473938 55.76317398 2.0572876 55.76462921 2.89172363 55.76612854 C4.60314534 55.76446939 6.31458193 55.75290612 8.02587891 55.73217773 C10.64680295 55.70322934 13.26570376 55.71156583 15.88671875 55.72460938 C17.54948901 55.71837168 19.21225287 55.7099805 20.875 55.69921875 C21.65943481 55.70215439 22.44386963 55.70509003 23.2520752 55.70811462 C27.44598758 55.66888786 27.44598758 55.66888786 31.13037109 53.87768555 C32.43658044 51.82511527 32.85301143 50.03097481 33.28125 47.640625 C34.07291667 43.34895833 34.07291667 43.34895833 35.15625 42.265625 C38.59375 42.015625 38.59375 42.015625 42.15625 42.265625 C44.8769408 46.34666119 44.77631389 49.47563146 44.15625 54.265625 C42.34847094 60.120364 39.64038805 63.34853029 34.15625 66.265625 C31.47624731 67.15895923 29.89798639 67.40006335 27.1472168 67.42675781 C25.94532967 67.44116913 25.94532967 67.44116913 24.71916199 67.45587158 C23.42538383 67.4622464 23.42538383 67.4622464 22.10546875 67.46875 C21.21390579 67.47445007 20.32234283 67.48015015 19.40376282 67.48602295 C17.51666448 67.49546849 15.62954968 67.50200516 13.74243164 67.50585938 C10.86510179 67.51555307 7.98848999 67.54657555 5.11132812 67.578125 C3.2760459 67.58465657 1.44075857 67.58990644 -0.39453125 67.59375 C-1.25097733 67.6060968 -2.1074234 67.6184436 -2.98982239 67.63116455 C-8.88440159 67.60934403 -13.18091968 66.67166246 -17.70703125 62.58203125 C-18.18527344 62.00324219 -18.66351563 61.42445313 -19.15625 60.828125 C-19.64738281 60.25191406 -20.13851562 59.67570312 -20.64453125 59.08203125 C-23.50421795 54.75058397 -23.03613904 49.64067109 -23.08203125 44.625 C-23.090103 43.78398743 -23.09817474 42.94297485 -23.10649109 42.07647705 C-23.12030212 40.29791303 -23.13103757 38.51932285 -23.13891602 36.74072266 C-23.15042696 34.93107275 -23.17086482 33.12145656 -23.20043945 31.31201172 C-23.24332023 28.68694156 -23.25931328 26.06287785 -23.26953125 23.4375 C-23.28703934 22.63826111 -23.30454742 21.83902222 -23.32258606 21.01556396 C-23.30085148 15.31519388 -22.0035502 11.04095719 -18.84375 6.265625 C-13.0895917 0.65900922 -7.67684859 -0.0382947 0 0 Z " fill="#5181C3" transform="translate(79.84375,121.734375)"/>
<path d="M0 0 C1.26651146 -0.00642769 1.26651146 -0.00642769 2.55860901 -0.01298523 C4.33960068 -0.01871335 6.12061575 -0.01924 7.90161133 -0.01489258 C10.61645677 -0.01173324 13.33021104 -0.03520793 16.04492188 -0.06054688 C17.77994655 -0.0628202 19.51497414 -0.06352321 21.25 -0.0625 C22.05642441 -0.07170975 22.86284882 -0.08091949 23.69371033 -0.09040833 C28.57483793 -0.05062448 31.97822633 0.56268604 36.19140625 3.30078125 C37.25390625 5.73828125 37.25390625 5.73828125 37.19140625 8.30078125 C36.25756836 10.4453125 36.25756836 10.4453125 34.19140625 12.30078125 C31.14791729 12.8325084 28.14831674 12.6683804 25.0703125 12.55078125 C24.1740062 12.53563477 23.27769989 12.52048828 22.35423279 12.50488281 C18.51707357 12.4394327 14.68161243 12.32694672 10.84545898 12.21875 C8.04549016 12.14646206 5.24579723 12.09805557 2.4453125 12.05078125 C1.57854385 12.01758789 0.71177521 11.98439453 -0.18125916 11.95019531 C-3.88548886 11.88983564 -6.130813 11.89595763 -9.35595703 13.82226562 C-11.36333036 17.24728311 -11.36389088 20.34732119 -11.3046875 24.20703125 C-11.30614273 24.96874634 -11.30759796 25.73046143 -11.30909729 26.51525879 C-11.30744064 28.12235345 -11.29590535 29.72946435 -11.27514648 31.33642578 C-11.24618926 33.79267951 -11.25454121 36.24677394 -11.26757812 38.703125 C-11.26134026 40.26693755 -11.25294893 41.83074329 -11.2421875 43.39453125 C-11.24659096 44.49311462 -11.24659096 44.49311462 -11.25108337 45.6138916 C-11.19652286 48.57120589 -10.9245414 51.01788021 -9.79907227 53.76391602 C-6.65997123 56.18764238 -3.3282403 55.85130806 0.47265625 55.796875 C1.28255005 55.79833023 2.09244385 55.79978546 2.92687988 55.80128479 C4.63830159 55.79962564 6.34973818 55.78806237 8.06103516 55.76733398 C10.6819592 55.73838559 13.30086001 55.74672208 15.921875 55.75976562 C17.58464526 55.75352793 19.24740912 55.74513675 20.91015625 55.734375 C21.69459106 55.73731064 22.47902588 55.74024628 23.28723145 55.74327087 C27.48114383 55.70404411 27.48114383 55.70404411 31.16552734 53.9128418 C32.47173669 51.86027152 32.88816768 50.06613106 33.31640625 47.67578125 C34.10807292 43.38411458 34.10807292 43.38411458 35.19140625 42.30078125 C38.62890625 42.05078125 38.62890625 42.05078125 42.19140625 42.30078125 C44.91209705 46.38181744 44.81147014 49.51078771 44.19140625 54.30078125 C42.38362719 60.15552025 39.6755443 63.38368654 34.19140625 66.30078125 C31.51140356 67.19411548 29.93314264 67.4352196 27.18237305 67.46191406 C25.98048592 67.47632538 25.98048592 67.47632538 24.75431824 67.49102783 C23.46054008 67.49740265 23.46054008 67.49740265 22.140625 67.50390625 C21.24906204 67.50960632 20.35749908 67.5153064 19.43891907 67.5211792 C17.55182073 67.53062474 15.66470593 67.53716141 13.77758789 67.54101562 C10.90025804 67.55070932 8.02364624 67.5817318 5.14648438 67.61328125 C3.31120215 67.61981282 1.47591482 67.62506269 -0.359375 67.62890625 C-1.21582108 67.64125305 -2.07226715 67.65359985 -2.95466614 67.6663208 C-8.84924534 67.64450028 -13.14576343 66.70681871 -17.671875 62.6171875 C-18.15011719 62.03839844 -18.62835938 61.45960938 -19.12109375 60.86328125 C-19.61222656 60.28707031 -20.10335937 59.71085937 -20.609375 59.1171875 C-23.4690617 54.78574022 -23.00098279 49.67582734 -23.046875 44.66015625 C-23.05494675 43.81914368 -23.06301849 42.9781311 -23.07133484 42.1116333 C-23.08514587 40.33306928 -23.09588132 38.5544791 -23.10375977 36.77587891 C-23.11527071 34.966229 -23.13570857 33.15661281 -23.1652832 31.34716797 C-23.20816398 28.72209781 -23.22415703 26.0980341 -23.234375 23.47265625 C-23.25188309 22.67341736 -23.26939117 21.87417847 -23.28742981 21.05072021 C-23.26569523 15.35035013 -21.96839395 11.07611344 -18.80859375 6.30078125 C-13.07496162 0.71416533 -7.65304945 -0.00862769 0 0 Z " fill="#5D6FB6" transform="translate(79.80859375,236.69921875)"/>
<path d="M0 0 C1.76459312 -0.01279495 1.76459312 -0.01279495 3.56483459 -0.02584839 C4.8620343 -0.02494202 6.15923401 -0.02403564 7.4957428 -0.02310181 C8.87046678 -0.02908363 10.2451874 -0.03588837 11.61990356 -0.04345703 C15.3595546 -0.06115899 19.09911418 -0.06581415 22.83880305 -0.0670886 C25.95771747 -0.06898513 29.07661046 -0.07633975 32.19551665 -0.08343279 C39.55211344 -0.09973008 46.90866127 -0.1046005 54.26527405 -0.10317993 C61.86116854 -0.10197794 69.45677913 -0.12308792 77.05260175 -0.15466726 C83.56814761 -0.1807929 90.08360054 -0.19154881 96.5991984 -0.19026911 C100.49331638 -0.1897584 104.38718215 -0.19550113 108.28124809 -0.21662521 C111.94292401 -0.23594565 115.60410554 -0.23617524 119.26579857 -0.22159195 C121.25359352 -0.2184934 123.24138819 -0.23522326 125.22911072 -0.25247192 C126.40832596 -0.24408295 127.5875412 -0.23569397 128.80249023 -0.22705078 C129.82953536 -0.22814032 130.85658049 -0.22922985 131.91474819 -0.2303524 C134.46473694 0.26742554 134.46473694 0.26742554 136.32643986 2.13426781 C137.46473694 4.26742554 137.46473694 4.26742554 137.33973694 6.89242554 C136.46473694 9.26742554 136.46473694 9.26742554 133.46473694 11.26742554 C130.94877625 11.52190113 130.94877625 11.52190113 127.88514709 11.52812195 C126.72420532 11.53520676 125.56326355 11.54229156 124.36714172 11.54959106 C123.09223877 11.54711365 121.81733582 11.54463623 120.50379944 11.54208374 C119.148633 11.54643054 117.79346903 11.55161358 116.43830872 11.55757141 C112.75655653 11.57097502 109.07490691 11.57153867 105.39313507 11.56900811 C102.32139316 11.56793949 99.2496721 11.57281888 96.17793465 11.57761353 C88.9330248 11.58871306 81.6881668 11.58914339 74.44325256 11.58309937 C66.96383009 11.57705579 59.48459556 11.58937922 52.00520515 11.61066943 C45.58730429 11.62826779 39.16946334 11.63428966 32.75153923 11.63103169 C28.91673041 11.62921613 25.0820557 11.6318822 21.24726868 11.64574623 C17.64227265 11.65829167 14.03757039 11.65641201 10.43257904 11.64333534 C8.47582235 11.63982983 6.51905682 11.6511712 4.56233215 11.66290283 C3.40139038 11.65588852 2.24044861 11.64887421 1.04432678 11.64164734 C0.03332916 11.64181508 -0.97766846 11.64198282 -2.01930237 11.64215565 C-4.53526306 11.26742554 -4.53526306 11.26742554 -6.36445618 9.93544292 C-8.16035762 7.37686997 -7.85779818 5.29925568 -7.53526306 2.26742554 C-4.89145354 -0.37638399 -3.69127416 0.01205063 0 0 Z " fill="#4F84C4" transform="translate(176.53526306152344,133.73257446289063)"/>
<path d="M0 0 C0.88187988 -0.00365067 1.76375977 -0.00730133 2.67236328 -0.01106262 C5.58051958 -0.01915308 8.48811611 -0.00557151 11.39624023 0.0090332 C13.41975402 0.00955194 15.44326832 0.0090337 17.46678162 0.00752258 C21.70433083 0.00761224 25.94168953 0.01802856 30.17919922 0.03613281 C35.61224379 0.05883412 41.04501037 0.05936068 46.47808933 0.05261517 C50.65506971 0.04927488 54.83198665 0.05590619 59.008955 0.0657444 C61.01243699 0.06959455 63.01592603 0.07074538 65.01941109 0.06915855 C67.81776523 0.06878795 70.61576201 0.08140642 73.4140625 0.09765625 C74.65708382 0.09394012 74.65708382 0.09394012 75.92521667 0.09014893 C83.27779938 0.15833519 83.27779938 0.15833519 86.14233398 2.37231445 C87.01733398 5.30981445 87.01733398 5.30981445 87.14233398 8.37231445 C86.48233398 9.36231445 85.82233398 10.35231445 85.14233398 11.37231445 C82.04331525 11.66895258 79.14407123 11.77106603 76.04272461 11.74462891 C75.0995488 11.74827957 74.15637299 11.75193024 73.18461609 11.75569153 C70.05575759 11.76382128 66.92741305 11.75016671 63.79858398 11.7355957 C61.63146973 11.73507739 59.464355 11.73559398 57.29724121 11.73710632 C52.75090536 11.73701649 48.20474643 11.72656458 43.65844727 11.70849609 C37.8204429 11.68580863 31.98269726 11.68526367 26.14466095 11.69201374 C21.66837246 11.69534956 17.19214334 11.68873094 12.71586609 11.67888451 C10.56280325 11.67502553 8.40973381 11.67388716 6.25666809 11.67547035 C3.25163103 11.67583974 0.24693011 11.66325624 -2.75805664 11.64697266 C-4.10309013 11.65068878 -4.10309013 11.65068878 -5.47529602 11.65447998 C-11.62892645 11.60105402 -11.62892645 11.60105402 -13.85766602 9.37231445 C-14.29516602 6.43481445 -14.29516602 6.43481445 -13.85766602 3.37231445 C-9.551707 -0.26693347 -5.35097821 -0.04947819 0 0 Z " fill="#517FC1" transform="translate(182.857666015625,165.627685546875)"/>
<path d="M0 0 C1 3.0625 1 3.0625 1 7 C-0.45117188 8.69824219 -0.45117188 8.69824219 -2.46875 10.359375 C-3.56896484 11.26828491 -3.56896484 11.26828491 -4.69140625 12.19555664 C-8.22731343 14.95929289 -11.83365609 17.59996967 -15.5 20.1875 C-22.42731715 25.12770984 -29.27202529 30.16063789 -36.04882812 35.30541992 C-42.02070821 39.82369993 -42.02070821 39.82369993 -45.77734375 40.5 C-49.34751502 39.94608252 -49.67722449 39.66734672 -51.81640625 37 C-52.75307814 35.68154793 -53.66761749 34.34716569 -54.5625 33 C-55.03921143 32.31244629 -55.51592285 31.62489258 -56.00708008 30.91650391 C-57.35731843 28.95660756 -58.67960709 26.98006078 -60 25 C-60.60070312 24.14148438 -61.20140625 23.28296875 -61.8203125 22.3984375 C-63.64417007 19.69912829 -64.92048924 17.39755381 -65.5625 14.1875 C-65 12 -65 12 -63.3125 10.125 C-60.32556602 8.67189698 -59.13116878 8.98948644 -56 10 C-54.12109375 11.85546875 -54.12109375 11.85546875 -52.4375 14.1875 C-51.55191406 15.39792969 -51.55191406 15.39792969 -50.6484375 16.6328125 C-48.72264959 19.39828045 -46.81872865 22.1627833 -45 25 C-41.54680939 23.73868422 -38.78164238 22.30231336 -35.84765625 20.09375 C-35.07776367 19.51890869 -34.30787109 18.94406738 -33.51464844 18.35180664 C-32.70543945 17.74071045 -31.89623047 17.12961426 -31.0625 16.5 C-29.36080386 15.23811027 -27.65897988 13.97639291 -25.95703125 12.71484375 C-22.91122275 10.44292701 -19.88877335 8.14572737 -16.88671875 5.81640625 C-15.67459318 4.89828695 -14.46236123 3.98030809 -13.25 3.0625 C-12.71511963 2.63195312 -12.18023926 2.20140625 -11.62915039 1.7578125 C-7.52475799 -1.31224459 -4.88054077 -1.1833472 0 0 Z " fill="#4F83C4" transform="translate(139,130)"/>
<path d="M0 0 C1 3.0625 1 3.0625 1 7 C-0.43579102 8.68066406 -0.43579102 8.68066406 -2.44140625 10.328125 C-3.17504395 10.93406494 -3.90868164 11.54000488 -4.66455078 12.16430664 C-8.37173899 15.07820463 -12.12361592 17.91470642 -15.9375 20.6875 C-16.75436279 21.28256348 -17.57122559 21.87762695 -18.4128418 22.49072266 C-20.10234245 23.71912466 -21.79318292 24.94568602 -23.48535156 26.17041016 C-25.93801591 27.95490206 -28.37230534 29.76221942 -30.8046875 31.57421875 C-32.30670817 32.6752756 -33.80928738 33.77557101 -35.3125 34.875 C-36.34201782 35.65170044 -36.34201782 35.65170044 -37.39233398 36.4440918 C-40.34022901 38.57257936 -42.56918976 39.89578905 -46.1328125 40.7578125 C-50.54713141 39.59108516 -52.11248028 36.68828585 -54.5625 33 C-55.03921143 32.31244629 -55.51592285 31.62489258 -56.00708008 30.91650391 C-57.35731843 28.95660756 -58.67960709 26.98006078 -60 25 C-60.60070312 24.14148438 -61.20140625 23.28296875 -61.8203125 22.3984375 C-63.64417007 19.69912829 -64.92048924 17.39755381 -65.5625 14.1875 C-65 12 -65 12 -63.3125 10.125 C-61 9 -61 9 -58.64453125 9.06640625 C-54.88713918 10.3928711 -53.64612752 12.58531365 -51.375 15.8125 C-50.61960937 16.87082031 -49.86421875 17.92914063 -49.0859375 19.01953125 C-48.39757812 20.00308594 -47.70921875 20.98664063 -47 22 C-46.00365612 23.33606761 -45.00437734 24.66996092 -44 26 C-43.51869629 25.64397705 -43.03739258 25.2879541 -42.54150391 24.92114258 C-39.37985078 22.5837322 -36.2179998 20.24680892 -33.04589844 17.92358398 C-28.65380176 14.70646632 -24.28813452 11.46508741 -19.9765625 8.140625 C-18.40105653 6.94789704 -16.82553628 5.75518793 -15.25 4.5625 C-14.52506348 3.98927002 -13.80012695 3.41604004 -13.05322266 2.82543945 C-8.27126426 -0.75296862 -5.81866475 -1.65268357 0 0 Z " fill="#5C70B7" transform="translate(139,245)"/>
<path d="M0 0 C4.094454 0.52312434 5.29869653 1.89971439 8.0546875 4.90625 C8.83585937 5.7415625 9.61703125 6.576875 10.421875 7.4375 C11.00195312 8.0871875 11.58203125 8.736875 12.1796875 9.40625 C13.2852064 8.47034496 14.38904203 7.53245142 15.4921875 6.59375 C16.10707031 6.07167969 16.72195312 5.54960937 17.35546875 5.01171875 C19.18964507 3.45337331 19.18964507 3.45337331 20.72265625 1.734375 C22.1796875 0.40625 22.1796875 0.40625 25.1796875 -0.03125 C28.1796875 0.40625 28.1796875 0.40625 30.1171875 2.09375 C31.49095919 5.08372368 31.15377151 6.28918115 30.1796875 9.40625 C28.33203125 11.64453125 28.33203125 11.64453125 26.1171875 13.71875 C25.38371094 14.41613281 24.65023437 15.11351562 23.89453125 15.83203125 C23.04568359 16.61126953 23.04568359 16.61126953 22.1796875 17.40625 C23.97679385 21.5021929 26.69927996 24.16648047 29.81640625 27.30859375 C31.1796875 29.40625 31.1796875 29.40625 31.07421875 32.03515625 C30.1796875 34.40625 30.1796875 34.40625 27.1796875 36.40625 C23.60149359 36.57267762 21.72823713 35.87572941 19.01171875 33.55078125 C17.00962369 31.54868619 15.07068807 29.5132278 13.1796875 27.40625 C12.72078125 27.80457031 12.261875 28.20289063 11.7890625 28.61328125 C10.52522009 29.70454013 9.25544165 30.7889539 7.98046875 31.8671875 C6.66350756 32.99274652 5.37985654 34.15760635 4.1171875 35.34375 C1.24800534 36.91717247 -0.74784984 36.22557338 -3.8203125 35.40625 C-4.8203125 34.40625 -4.8203125 34.40625 -5.3828125 31.34375 C-4.56104902 25.59140565 -1.0958371 23.08052896 3.1796875 19.40625 C1.86631966 16.42885785 0.53610831 14.67358822 -1.9453125 12.59375 C-4.59915138 10.04994834 -4.79903967 9.56579624 -5.3203125 5.65625 C-4.69043816 1.56206681 -4.13729643 0.59595406 0 0 Z " fill="#685FAB" transform="translate(77.8203125,367.59375)"/>
<path d="M0 0 C0.66032227 -0.00350464 1.32064453 -0.00700928 2.00097656 -0.01062012 C4.18825732 -0.01943775 6.37521583 -0.01358837 8.5625 -0.00683594 C10.07942772 -0.00818258 11.59635501 -0.01012311 13.11328125 -0.01263428 C16.29431258 -0.01558558 19.47523169 -0.01128778 22.65625 -0.00195312 C26.73877902 0.00944149 30.82104509 0.00288204 34.90356445 -0.00909805 C38.03647858 -0.01631654 41.16933011 -0.01402879 44.30224609 -0.00884247 C45.80778026 -0.00750594 47.31332007 -0.00915382 48.81884766 -0.01380157 C50.92105212 -0.01886672 53.02282758 -0.01115721 55.125 0 C56.92130859 0.00238678 56.92130859 0.00238678 58.75390625 0.00482178 C61.5625 0.25878906 61.5625 0.25878906 63.5625 2.25878906 C63.8125 5.25878906 63.8125 5.25878906 63.5625 8.25878906 C60.76627418 11.05501488 59.04168682 10.51237397 55.125 10.51757812 C54.1345166 10.52283508 54.1345166 10.52283508 53.12402344 10.52819824 C50.93674268 10.53701588 48.74978417 10.53116649 46.5625 10.52441406 C45.04557228 10.52576071 43.52864499 10.52770124 42.01171875 10.5302124 C38.83068742 10.5331637 35.64976831 10.5288659 32.46875 10.51953125 C28.38622098 10.50813663 24.30395491 10.51469608 20.22143555 10.52667618 C17.08852142 10.53389467 13.95566989 10.53160692 10.82275391 10.52642059 C9.31721974 10.52508406 7.81167993 10.52673194 6.30615234 10.5313797 C4.20394788 10.53644485 2.10217242 10.52873534 0 10.51757812 C-1.19753906 10.51598694 -2.39507812 10.51439575 -3.62890625 10.51275635 C-6.4375 10.25878906 -6.4375 10.25878906 -8.4375 8.25878906 C-8.6875 5.25878906 -8.6875 5.25878906 -8.4375 2.25878906 C-5.64127418 -0.53743676 -3.91668682 0.00520416 0 0 Z " fill="#6A5DA9" transform="translate(177.4375,396.7412109375)"/>
<path d="M0 0 C1.57701187 -0.01441132 1.57701187 -0.01441132 3.18588257 -0.02911377 C4.90298935 -0.03548859 4.90298935 -0.03548859 6.65478516 -0.04199219 C7.82264557 -0.04769226 8.99050598 -0.05339233 10.1937561 -0.05926514 C12.67033985 -0.06873234 15.1469363 -0.07525591 17.62353516 -0.07910156 C21.42063283 -0.08880784 25.21718967 -0.11981615 29.01416016 -0.15136719 C31.41519859 -0.1578967 33.81624092 -0.16314737 36.21728516 -0.16699219 C37.92831924 -0.18551239 37.92831924 -0.18551239 39.67391968 -0.20440674 C40.73156525 -0.20140564 41.78921082 -0.19840454 42.87890625 -0.1953125 C43.81076752 -0.19895813 44.74262878 -0.20260376 45.70272827 -0.20635986 C48.06884766 0.16113281 48.06884766 0.16113281 49.90103149 1.49200439 C51.06884766 3.16113281 51.06884766 3.16113281 50.94384766 6.22363281 C50.06884766 9.16113281 50.06884766 9.16113281 47.06884766 11.16113281 C44.79211426 11.42182922 44.79211426 11.42182922 42.09423828 11.43579102 C40.57751526 11.45008904 40.57751526 11.45008904 39.03015137 11.4646759 C37.39414978 11.46330879 37.39414978 11.46330879 35.72509766 11.46191406 C34.60445923 11.46619919 33.4838208 11.47048431 32.32922363 11.47489929 C29.95874711 11.48064496 27.58825296 11.48114112 25.21777344 11.47680664 C21.5831917 11.47364529 17.94942253 11.49710867 14.31494141 11.52246094 C12.01416119 11.52473368 9.71337877 11.52543754 7.41259766 11.52441406 C6.32192993 11.53362381 5.23126221 11.54283356 4.10754395 11.55232239 C3.09639526 11.5460936 2.08524658 11.53986481 1.04345703 11.53344727 C0.15315796 11.53407669 -0.73714111 11.53470612 -1.65441895 11.53535461 C-3.93115234 11.16113281 -3.93115234 11.16113281 -5.75769043 9.86442566 C-6.93115234 8.16113281 -6.93115234 8.16113281 -6.68115234 4.53613281 C-5.57205594 -0.45480101 -4.80309014 0.03525376 0 0 Z " fill="#5B72B8" transform="translate(175.93115234375,248.8388671875)"/>
<path d="M0 0 C0.87107895 -0.01283524 1.7421579 -0.02567047 2.63963318 -0.03889465 C3.58234573 -0.04628159 4.52505829 -0.05366852 5.49633789 -0.0612793 C6.46301895 -0.06935104 7.42970001 -0.07742279 8.42567444 -0.08573914 C10.47256677 -0.09958156 12.51948221 -0.110303 14.56640625 -0.11816406 C17.70299645 -0.13541009 20.83854175 -0.17929853 23.97485352 -0.22338867 C25.96117387 -0.23351249 27.9475032 -0.24202956 29.93383789 -0.2487793 C30.87452621 -0.26628738 31.81521454 -0.28379547 32.78440857 -0.30183411 C39.26032994 -0.28016278 39.26032994 -0.28016278 41.90478516 2.03955078 C43.06463929 4.86732102 42.83073639 6.3290587 41.78149414 9.17700195 C38.69705868 11.23329226 38.03033024 11.430174 34.54125977 11.45166016 C33.26478577 11.46595818 33.26478577 11.46595818 31.96252441 11.48054504 C31.04684692 11.47963364 30.13116943 11.47872223 29.18774414 11.4777832 C28.24467407 11.48206833 27.301604 11.48635345 26.32995605 11.49076843 C24.33610843 11.49651127 22.34223985 11.49701234 20.34838867 11.49267578 C17.29317637 11.48951404 14.23893056 11.51298172 11.18383789 11.53833008 C9.2476412 11.54060284 7.3114419 11.54130667 5.37524414 11.5402832 C4.00172791 11.55409782 4.00172791 11.55409782 2.60046387 11.56819153 C1.7494812 11.56196274 0.89849854 11.55573395 0.02172852 11.54931641 C-1.10054138 11.55026054 -1.10054138 11.55026054 -2.2454834 11.55122375 C-4.80412289 11.06592838 -5.70887574 10.27903121 -7.21850586 8.17700195 C-7.03100586 4.55200195 -7.03100586 4.55200195 -6.21850586 1.17700195 C-3.91653784 0.02601795 -2.56176748 0.03282961 0 0 Z " fill="#6761AC" transform="translate(176.218505859375,363.822998046875)"/>
<path d="M0 0 C1.25472107 0.00136711 1.25472107 0.00136711 2.53479004 0.00276184 C3.39286255 -0.00152328 4.25093506 -0.00580841 5.13500977 -0.01022339 C6.9507153 -0.01597099 8.76644386 -0.01646379 10.58215332 -0.01213074 C13.36754403 -0.00896939 16.15187441 -0.03242869 18.93713379 -0.05778503 C20.69885119 -0.06005777 22.46057147 -0.06076164 24.22229004 -0.05973816 C25.05877075 -0.06894791 25.89525146 -0.07815765 26.75708008 -0.08764648 C29.10314941 -0.06877136 29.10314941 -0.06877136 32.87854004 0.30354309 C34.87854004 3.30354309 34.87854004 3.30354309 34.56604004 6.42854309 C33.87854004 9.30354309 33.87854004 9.30354309 32.87854004 10.30354309 C30.01759787 10.4170347 27.18170548 10.46772801 24.31994629 10.47151184 C23.46045883 10.47484024 22.60097137 10.47816864 21.71543884 10.4815979 C19.89375343 10.48667079 18.07205868 10.48900611 16.25036621 10.48884583 C13.45634714 10.49103112 10.66272347 10.50917953 7.86877441 10.52815247 C6.10249973 10.53108649 4.33622316 10.53307123 2.56994629 10.53401184 C1.73032852 10.54119736 0.89071075 10.54838287 0.02565002 10.55578613 C-5.89263815 10.5323649 -5.89263815 10.5323649 -8.12145996 8.30354309 C-8.37145996 5.30354309 -8.37145996 5.30354309 -8.12145996 2.30354309 C-5.49314485 -0.32477202 -3.57937701 0.04406941 0 0 Z " fill="#5E6DB5" transform="translate(177.1214599609375,281.6964569091797)"/>
</svg>
