<?xml version="1.0" encoding="UTF-8"?>
<svg version="1.1" xmlns="http://www.w3.org/2000/svg" width="512" height="512">
<path d="M0 0 C30.56577732 -0.0912801 61.13152342 -0.16205401 91.6974045 -0.20426132 C95.30722172 -0.20926405 98.91703866 -0.21444135 102.52685547 -0.21972656 C103.60481498 -0.22130043 103.60481498 -0.22130043 104.70455146 -0.22290608 C116.33570335 -0.24030415 127.96677603 -0.27183852 139.59788096 -0.30861118 C151.53536565 -0.3460373 163.4728089 -0.36823938 175.41034985 -0.37635398 C182.11429614 -0.3813466 188.81805177 -0.39383686 195.52194214 -0.42292023 C201.83215852 -0.45007388 208.14212141 -0.45844493 214.45239067 -0.45243073 C216.76790176 -0.45353097 219.08342135 -0.46148487 221.39888191 -0.4768219 C224.562456 -0.4967484 227.7250753 -0.4919288 230.88867188 -0.48101807 C232.26029559 -0.49849512 232.26029559 -0.49849512 233.65962887 -0.51632524 C240.51724365 -0.45247947 245.78309623 1.22402319 251.0234375 5.74609375 C251.46945312 6.30425781 251.91546875 6.86242187 252.375 7.4375 C253.06722656 8.27087891 253.06722656 8.27087891 253.7734375 9.12109375 C256.86544365 13.85757451 257.28555107 18.19540963 257.24050903 23.73847961 C257.24307231 24.89644957 257.24307231 24.89644957 257.24568737 26.07781285 C257.24897744 28.66044996 257.23798657 31.24282634 257.22705078 33.82543945 C257.22648656 35.6783701 257.22680343 37.53130119 257.22793579 39.38423157 C257.22850989 44.41273989 257.21674628 49.4411529 257.20278788 54.46963906 C257.19029008 59.7253752 257.18911077 64.98111348 257.18673706 70.23686218 C257.1805195 80.18860356 257.16410493 90.14030103 257.14403808 100.09202307 C257.12168768 111.42202614 257.11068781 122.7520313 257.10064721 134.08205092 C257.07973896 157.3880583 257.0445576 180.69402669 257 204 C252.47921337 203.37685822 248.11598919 202.6029861 243.6875 201.5 C215.96344126 195.01206388 188.13451687 201.08925432 164.12890625 215.75390625 C138.62035999 232.90551848 124.05237785 257.37186757 118 287 C117.44640659 290.34482071 117.1266524 293.61342505 117 297 C116.96003906 297.90621094 116.92007813 298.81242187 116.87890625 299.74609375 C116.24611061 327.77521827 126.65862997 354.94589068 145.8605957 375.38012695 C165.83022315 395.83607714 192.18244987 406.66195183 220.75 407.3125 C233.01828437 407.29147209 245.03046602 404.41623917 257 402 C257.09965569 406.26832981 257.17183391 410.53602469 257.21972656 414.80517578 C257.23971295 416.25418917 257.26691197 417.70312325 257.30175781 419.15185547 C257.51839179 428.39702909 257.54157574 435.49604273 251.359375 442.98828125 C250.82828125 443.42527344 250.2971875 443.86226563 249.75 444.3125 C249.22921875 444.76238281 248.7084375 445.21226562 248.171875 445.67578125 C240.79799499 450.17172608 234.09759906 450.43035022 225.66467285 450.38095093 C223.81916265 450.38797089 223.81916265 450.38797089 221.93636942 450.39513266 C218.53783843 450.40499991 215.13980767 450.40148739 211.7413075 450.39217401 C208.06980531 450.38537049 204.39834601 450.39587118 200.72685242 450.40411377 C193.54095221 450.41743943 186.35514612 450.41457858 179.16924226 450.40587585 C173.32805572 450.39909511 167.48689552 450.39818427 161.64570618 450.4014473 C160.81371615 450.401907 159.98172612 450.40236669 159.12452427 450.40284032 C157.43424538 450.40379952 155.7439665 450.40477216 154.05368763 450.4057581 C138.21148096 450.41430857 122.3693264 450.40448324 106.52712828 450.388357 C92.93977166 450.37495413 79.35249195 450.37728231 65.76513672 450.39111328 C49.9788332 450.40717514 34.19257533 450.41348463 18.40626478 450.40427649 C16.72227447 450.40332086 15.03828415 450.40237775 13.35429382 450.4014473 C12.52578223 450.40098447 11.69727064 450.40052164 10.84365264 450.40004479 C5.0108543 450.39745672 -0.82191502 450.40182195 -6.65470886 450.40888596 C-13.76491004 450.41730789 -20.87501189 450.41500626 -27.98520172 450.39904372 C-31.61153115 450.39117031 -35.23769508 450.38805345 -38.86402321 450.39799118 C-42.79766627 450.4086079 -46.73103951 450.3959137 -50.66467285 450.38095093 C-52.37829647 450.39098918 -52.37829647 450.39098918 -54.12653875 450.40123022 C-62.25786658 450.34118913 -69.03734622 449.33903601 -75.3125 443.6875 C-75.94800781 443.13449219 -76.58351563 442.58148438 -77.23828125 442.01171875 C-81.06731083 437.63932355 -82.37527477 433.50736478 -82.36914349 427.76439857 C-82.37511663 426.52629704 -82.38108978 425.28819551 -82.38724393 424.01257575 C-82.37868592 422.64677934 -82.36984916 421.28098465 -82.36076355 419.91519165 C-82.36207219 418.45808188 -82.3646997 417.00097279 -82.36853105 415.54386747 C-82.37523645 411.54397898 -82.36324266 407.54433165 -82.34819686 403.54447389 C-82.33524154 399.22961073 -82.33962561 394.91476117 -82.34190369 390.59988403 C-82.34347674 383.12544152 -82.33406418 375.65107757 -82.31719017 368.17665482 C-82.29280909 357.36990668 -82.28499581 346.56319653 -82.2812262 335.75642388 C-82.27466032 318.22317381 -82.25469544 300.68996561 -82.22631836 283.15673828 C-82.19878133 266.12483937 -82.177546 249.09295183 -82.16479492 232.06103516 C-82.16400675 231.01118905 -82.16321858 229.96134295 -82.16240653 228.87968333 C-82.15849141 223.61291413 -82.15470029 218.34614484 -82.15097082 213.07937551 C-82.11987066 169.38622133 -82.06703112 125.69311283 -82 82 C-80.90578232 81.99453156 -80.90578232 81.99453156 -79.78945923 81.98895264 C-72.87574407 81.95090351 -65.96241082 81.8938609 -59.04903603 81.81609726 C-55.49572676 81.77678204 -51.94265938 81.74451644 -48.38916016 81.72900391 C-44.2929003 81.71080004 -40.19754132 81.66078018 -36.1015625 81.609375 C-34.8407486 81.60814636 -33.57993469 81.60691772 -32.28091431 81.60565186 C-23.01174097 81.45340118 -15.26620038 80.1065582 -8.125 73.875 C-0.84602292 65.76606681 -0.40080483 56.34485843 -0.390625 45.8984375 C-0.37408875 44.58082428 -0.35755249 43.26321106 -0.34051514 41.90567017 C-0.2971984 38.4369817 -0.27692305 34.96854435 -0.26177979 31.49963379 C-0.2420783 27.94622157 -0.20012403 24.39307557 -0.16015625 20.83984375 C-0.08524227 13.89333041 -0.03471735 6.9468276 0 0 Z M-36.375 113.4375 C-36.85710938 114.01371094 -37.33921875 114.58992188 -37.8359375 115.18359375 C-40.59515157 119.4890788 -40.19170816 124.46969784 -40.23828125 129.421875 C-40.246353 130.24069153 -40.25442474 131.05950806 -40.26274109 131.90313721 C-40.27655054 133.63462222 -40.28728669 135.3661341 -40.29516602 137.09765625 C-40.30667574 138.85880575 -40.3271117 140.61992065 -40.35668945 142.38085938 C-40.39958597 144.93643705 -40.41556531 147.49098096 -40.42578125 150.046875 C-40.44328934 150.82424011 -40.46079742 151.60160522 -40.47883606 152.40252686 C-40.45696907 157.98798162 -39.20680497 162.37066423 -36 167 C-28.11679077 173.27439102 -19.68868651 172.2880446 -10.12329102 172.35009766 C-8.25825491 172.36662104 -6.39328117 172.39386321 -4.52856445 172.43212891 C-1.82730554 172.48722242 0.87247176 172.50882238 3.57421875 172.5234375 C4.39846848 172.54610687 5.2227182 172.56877625 6.07194519 172.59213257 C12.10848836 172.57036984 16.41585101 171.007949 21 167 C24.43324899 162.21085506 25.70091443 157.95777266 25 152 C24.34 151.01 23.68 150.02 23 149 C20.5 148.58333333 20.5 148.58333333 18 149 C15.43328837 151.56671163 15.64473635 153.51825983 15.44140625 157.02734375 C14.87554519 159.55619184 13.99179721 160.37126793 12 162 C9.02304383 162.31056874 6.25964505 162.4441512 3.28125 162.43359375 C2.42696411 162.4388356 1.57267822 162.44407745 0.69250488 162.44947815 C-1.11302605 162.45589938 -2.91859882 162.45456002 -4.72412109 162.44604492 C-7.49001317 162.43753074 -10.25384309 162.46629979 -13.01953125 162.49804688 C-14.77343688 162.49965885 -16.52734617 162.49908143 -18.28125 162.49609375 C-19.52352356 162.51294472 -19.52352356 162.51294472 -20.79089355 162.53013611 C-26.38230366 162.46209516 -26.38230366 162.46209516 -29.01782227 160.49047852 C-30.43240147 156.9035726 -30.44796389 153.45548716 -30.43359375 149.65625 C-30.4388356 148.85014282 -30.44407745 148.04403564 -30.44947815 147.21350098 C-30.45589028 145.51230011 -30.45457179 143.81105486 -30.44604492 142.10986328 C-30.43752828 139.50863726 -30.46631525 136.90960326 -30.49804688 134.30859375 C-30.49965889 132.65364649 -30.49908135 130.99869535 -30.49609375 129.34375 C-30.50732773 128.56761353 -30.51856171 127.79147705 -30.53013611 126.99182129 C-30.4876426 123.6961677 -30.21314981 121.36736997 -28.54736328 118.49633789 C-24.66843542 116.21783023 -21.15835248 116.56184307 -16.74609375 116.71484375 C-15.84883072 116.72761856 -14.95156769 116.74039337 -14.02711487 116.7535553 C-11.16318792 116.79576965 -8.30078826 116.86419328 -5.4375 116.9375 C-2.57072478 117.00547632 0.2955676 117.06742511 3.16282654 117.11073303 C4.94604475 117.13805218 6.72911208 117.1797761 8.51161194 117.23728943 C9.31932541 117.25042679 10.12703888 117.26356415 10.95922852 117.27709961 C11.66886246 117.29582626 12.3784964 117.31455292 13.1096344 117.33384705 C15.55101767 116.90268781 16.4329463 115.86254988 18 114 C16.92411526 110.21058286 16.92411526 110.21058286 13.93896484 107.85473633 C10.16451549 106.75701684 6.56048157 106.69455568 2.6640625 106.69921875 C1.46769669 106.69279106 1.46769669 106.69279106 0.24716187 106.68623352 C-1.43547621 106.68050662 -3.11813904 106.67997784 -4.80078125 106.68432617 C-7.35981024 106.68748127 -9.91767664 106.66402444 -12.4765625 106.63867188 C-14.11718605 106.63639804 -15.75781269 106.63569577 -17.3984375 106.63671875 C-18.15595306 106.627509 -18.91346863 106.61829926 -19.69393921 106.60881042 C-26.25233474 106.66522644 -32.06588129 108.09276436 -36.375 113.4375 Z M28.9375 118.125 C28.34404785 118.56078369 27.7505957 118.99656738 27.13916016 119.44555664 C25.82034099 120.41577074 24.50475933 121.39039603 23.19189453 122.36865234 C20.80089293 124.14818818 18.3993835 125.91287945 15.99609375 127.67578125 C7.82177892 133.52986522 7.82177892 133.52986522 -0.06591797 139.75024414 C-0.70416504 140.16266357 -1.34241211 140.57508301 -2 141 C-6.18935432 139.60354856 -7.67607281 136.56745638 -10.0625 133.0625 C-13.26031272 128.31379042 -13.26031272 128.31379042 -17 124 C-19.93453261 124.36681658 -20.86437246 124.86437246 -23 127 C-22.68787084 131.03562653 -21.19503915 133.57824953 -18.875 136.828125 C-18.25109375 137.70984375 -17.6271875 138.5915625 -16.984375 139.5 C-16.32953125 140.4075 -15.6746875 141.315 -15 142.25 C-14.34515625 143.17296875 -13.6903125 144.0959375 -13.015625 145.046875 C-10.22071634 149.1972759 -10.22071634 149.1972759 -7 153 C-3.63510981 153.48749293 -2.23500019 153.14954558 0.6640625 151.3046875 C1.64117187 150.50289062 2.61828125 149.70109375 3.625 148.875 C4.7677418 147.95740244 5.91239529 147.04218233 7.05859375 146.12890625 C7.68233887 145.62891113 8.30608398 145.12891602 8.94873047 144.61376953 C12.79355103 141.58898211 16.74515763 138.70823698 20.6875 135.8125 C21.50347656 135.20841309 22.31945312 134.60432617 23.16015625 133.98193359 C26.5273838 131.49819331 29.88587085 129.03100157 33.40234375 126.76171875 C34.75005859 125.88966797 34.75005859 125.88966797 36.125 125 C37.24261719 124.319375 37.24261719 124.319375 38.3828125 123.625 C40.72712358 121.26936375 40.85295577 119.25227244 41 116 C40.34 115.34 39.68 114.68 39 114 C34.32881233 114 32.48726629 115.44811869 28.9375 118.125 Z M72 121 C72.32971479 124.29714793 72.6226839 125.6226839 75 128 C77.46341177 128.31047017 77.46341177 128.31047017 80.37667847 128.26742554 C81.51797211 128.27595551 82.65926575 128.28448547 83.83514404 128.29327393 C85.7224826 128.29191437 85.7224826 128.29191437 87.64794922 128.29052734 C88.98164243 128.29650935 90.31533218 128.30331413 91.64901733 128.31088257 C95.27716937 128.32858443 98.90522714 128.33323973 102.53341818 128.33451414 C105.56028149 128.33641102 108.58712272 128.3437662 111.61397755 128.35085833 C118.75487006 128.36715619 125.89571213 128.37202606 133.03662109 128.37060547 C140.4064206 128.369404 147.77592726 128.39050333 155.14565265 128.4220928 C161.46928407 128.44823386 167.79281974 128.45897367 174.11650479 128.45769465 C177.89496272 128.45718432 181.67316059 128.46290591 185.45156479 128.48405075 C189.00572685 128.50339668 192.55937984 128.50358322 196.11355972 128.48901749 C198.0403311 128.4859248 199.96710232 128.50263182 201.89379883 128.51989746 C203.04073212 128.51150848 204.18766541 128.50311951 205.36935425 128.49447632 C206.36598021 128.49556585 207.36260616 128.49665539 208.38943291 128.49777794 C211.68376297 127.86962138 212.88320881 126.52909549 215 124 C213.77992056 121.3094472 213.77992056 121.3094472 212 119 C210.22035443 118.8992705 208.43668161 118.86923276 206.65419006 118.86628723 C204.91473366 118.85988976 204.91473366 118.85988976 203.14013672 118.85336304 C201.21463989 118.85404282 201.21463989 118.85404282 199.25024414 118.85473633 C197.8937521 118.85174637 196.53726092 118.84834423 195.18077087 118.84455872 C191.48659422 118.83569783 187.7924407 118.83337973 184.09825444 118.83274293 C181.01906857 118.83179554 177.93988815 118.82811922 174.86070436 118.82457083 C167.59862109 118.81641833 160.33655022 118.81398732 153.07446289 118.81469727 C145.57238408 118.81529827 138.07037713 118.80474384 130.56831652 118.7889536 C124.13689238 118.77589703 117.70549177 118.77051257 111.27405447 118.77115268 C107.42865473 118.77140822 103.5833188 118.7685261 99.73793221 118.75797462 C96.12235489 118.74832522 92.5069028 118.74819258 88.89132118 118.75549126 C86.92600528 118.75704308 84.96068947 118.74866835 82.99539185 118.74005127 C81.2517057 118.746343 81.2517057 118.746343 79.47279358 118.75276184 C77.951018 118.75194469 77.951018 118.75194469 76.39849949 118.75111103 C73.81529685 118.76447207 73.81529685 118.76447207 72 121 Z M72 154 C72.18828772 156.44480079 72.18828772 156.44480079 73 159 C76.68802816 161.80019159 81.14740957 161.28080423 85.56054688 161.25878906 C86.85388695 161.26404602 86.85388695 161.26404602 88.1733551 161.26940918 C91.0219021 161.27820768 93.8702005 161.27238396 96.71875 161.265625 C98.69885302 161.26697219 100.67895573 161.26891317 102.65905762 161.27142334 C106.80838165 161.27437205 110.95761957 161.27008504 115.10693359 161.26074219 C120.42677414 161.24934783 125.74641289 161.25590865 131.06624603 161.26788712 C135.15486167 161.2751125 139.24342943 161.27281465 143.33204651 161.26763153 C145.29366581 161.26629692 147.25528945 161.26793617 149.21690369 161.27259064 C151.95787073 161.27766696 154.69851047 161.26993 157.43945312 161.25878906 C158.25100357 161.26283752 159.06255402 161.26688599 159.8986969 161.27105713 C165.28940741 161.29608275 165.28940741 161.29608275 170 159 C170.81171228 156.44480079 170.81171228 156.44480079 171 154 C167.88290534 150.83519471 165.09918009 150.64124196 160.77177429 150.59341431 C159.52639641 150.60252335 159.52639641 150.60252335 158.25585938 150.61181641 C157.37412552 150.60655945 156.49239166 150.60130249 155.5839386 150.59588623 C152.67036202 150.58268623 149.75733211 150.59142436 146.84375 150.6015625 C144.8188059 150.59954177 142.79386251 150.59663033 140.7689209 150.59286499 C136.52540151 150.58844163 132.28207158 150.59487314 128.03857422 150.60888672 C122.59758168 150.62597852 117.15703308 150.61613741 111.71605682 150.59816933 C107.53477632 150.58733186 103.35360117 150.59077768 99.1723175 150.5985527 C97.16604052 150.60055481 95.15975399 150.59809508 93.15348816 150.59111404 C90.35011435 150.58350027 87.54746076 150.59510282 84.74414062 150.61181641 C83.49876274 150.60270737 83.49876274 150.60270737 82.22822571 150.59341431 C77.90081991 150.64124196 75.11709466 150.83519471 72 154 Z M-36.375 228.4375 C-36.85710938 229.01371094 -37.33921875 229.58992187 -37.8359375 230.18359375 C-40.59515157 234.4890788 -40.19170816 239.46969784 -40.23828125 244.421875 C-40.246353 245.24069153 -40.25442474 246.05950806 -40.26274109 246.90313721 C-40.27655054 248.63462222 -40.28728669 250.3661341 -40.29516602 252.09765625 C-40.30667574 253.85880575 -40.3271117 255.61992065 -40.35668945 257.38085938 C-40.39958597 259.93643705 -40.41556531 262.49098096 -40.42578125 265.046875 C-40.44328934 265.82424011 -40.46079742 266.60160522 -40.47883606 267.40252686 C-40.45696907 272.98798162 -39.20680497 277.37066423 -36 282 C-28.11679077 288.27439102 -19.68868651 287.2880446 -10.12329102 287.35009766 C-8.25825491 287.36662104 -6.39328117 287.39386321 -4.52856445 287.43212891 C-1.82730554 287.48722242 0.87247176 287.50882238 3.57421875 287.5234375 C4.39846848 287.54610687 5.2227182 287.56877625 6.07194519 287.59213257 C12.10848836 287.57036984 16.41585101 286.007949 21 282 C24.43324899 277.21085506 25.70091443 272.95777266 25 267 C24.34 266.01 23.68 265.02 23 264 C20.5 263.58333333 20.5 263.58333333 18 264 C15.43328837 266.56671163 15.64473635 268.51825983 15.44140625 272.02734375 C14.87554519 274.55619184 13.99179721 275.37126793 12 277 C9.02304383 277.31056874 6.25964505 277.4441512 3.28125 277.43359375 C2.42696411 277.4388356 1.57267822 277.44407745 0.69250488 277.44947815 C-1.11302605 277.45589938 -2.91859882 277.45456002 -4.72412109 277.44604492 C-7.49001317 277.43753074 -10.25384309 277.46629979 -13.01953125 277.49804688 C-14.77343688 277.49965885 -16.52734617 277.49908143 -18.28125 277.49609375 C-19.52352356 277.51294472 -19.52352356 277.51294472 -20.79089355 277.53013611 C-26.38230366 277.46209516 -26.38230366 277.46209516 -29.01782227 275.49047852 C-30.43240147 271.9035726 -30.44796389 268.45548716 -30.43359375 264.65625 C-30.4388356 263.85014282 -30.44407745 263.04403564 -30.44947815 262.21350098 C-30.45589028 260.51230011 -30.45457179 258.81105486 -30.44604492 257.10986328 C-30.43752828 254.50863726 -30.46631525 251.90960326 -30.49804688 249.30859375 C-30.49965889 247.65364649 -30.49908135 245.99869535 -30.49609375 244.34375 C-30.50732773 243.56761353 -30.51856171 242.79147705 -30.53013611 241.99182129 C-30.4876426 238.6961677 -30.21314981 236.36736997 -28.54736328 233.49633789 C-24.66843542 231.21783023 -21.15835248 231.56184307 -16.74609375 231.71484375 C-15.84883072 231.72761856 -14.95156769 231.74039337 -14.02711487 231.7535553 C-11.16318792 231.79576965 -8.30078826 231.86419328 -5.4375 231.9375 C-2.57072478 232.00547632 0.2955676 232.06742511 3.16282654 232.11073303 C4.94604475 232.13805218 6.72911208 232.1797761 8.51161194 232.23728943 C9.31932541 232.25042679 10.12703888 232.26356415 10.95922852 232.27709961 C11.66886246 232.29582626 12.3784964 232.31455292 13.1096344 232.33384705 C15.55101767 231.90268781 16.4329463 230.86254988 18 229 C16.92411526 225.21058286 16.92411526 225.21058286 13.93896484 222.85473633 C10.16451549 221.75701684 6.56048157 221.69455568 2.6640625 221.69921875 C1.46769669 221.69279106 1.46769669 221.69279106 0.24716187 221.68623352 C-1.43547621 221.68050662 -3.11813904 221.67997784 -4.80078125 221.68432617 C-7.35981024 221.68748127 -9.91767664 221.66402444 -12.4765625 221.63867188 C-14.11718605 221.63639804 -15.75781269 221.63569577 -17.3984375 221.63671875 C-18.15595306 221.627509 -18.91346863 221.61829926 -19.69393921 221.60881042 C-26.25233474 221.66522644 -32.06588129 223.09276436 -36.375 228.4375 Z M28.9375 233.125 C28.34404785 233.56078369 27.7505957 233.99656738 27.13916016 234.44555664 C25.82034099 235.41577074 24.50475933 236.39039603 23.19189453 237.36865234 C20.80089293 239.14818818 18.3993835 240.91287945 15.99609375 242.67578125 C9.97928783 247.09286497 3.96750664 251.5164456 -2 256 C-7.26170218 254.11328719 -9.1256606 249.39081775 -11.90234375 244.84765625 C-14.04927018 241.93311366 -15.7930072 240.60070771 -19 239 C-20.32 239.99 -21.64 240.98 -23 242 C-22.55621219 247.2841711 -19.67005286 250.81748085 -16.6875 255 C-16.20087891 255.69867188 -15.71425781 256.39734375 -15.21289062 257.1171875 C-14.26115145 258.47498498 -13.29904357 259.82558586 -12.32568359 261.16796875 C-11.1746456 262.75864814 -10.06219872 264.37711545 -8.95703125 266 C-7.16634965 268.18579009 -7.16634965 268.18579009 -4.6015625 268.5703125 C-1.05508285 267.792856 0.81800178 266.17836793 3.625 263.875 C4.7677418 262.95740244 5.91239529 262.04218233 7.05859375 261.12890625 C7.68233887 260.62891113 8.30608398 260.12891602 8.94873047 259.61376953 C12.79354116 256.58898987 16.74498087 253.7079806 20.6875 250.8125 C21.50347656 250.20913818 22.31945312 249.60577637 23.16015625 248.98413086 C28.13043037 245.32147857 33.1445314 241.79900374 38.3828125 238.52734375 C40.57113459 236.46059511 40.84240091 234.9712063 41 232 C40.34 231.01 39.68 230.02 39 229 C34.32881233 229 32.48726629 230.44811869 28.9375 233.125 Z M72 236 C72.16442277 239.06991681 72.16442277 239.06991681 73 242 C75.43996357 243.21998179 77.04181148 243.13984318 79.76928711 243.16113281 C81.2560923 243.17554413 81.2560923 243.17554413 82.77293396 243.19024658 C84.38386681 243.1966214 84.38386681 243.1966214 86.02734375 243.203125 C87.67712975 243.21167511 87.67712975 243.21167511 89.36024475 243.22039795 C91.68961624 243.22985556 94.01900116 243.23638494 96.34838867 243.24023438 C99.91934398 243.2499506 103.48972649 243.28097175 107.06054688 243.3125 C109.32030907 243.31902876 111.58007539 243.32427973 113.83984375 243.328125 C114.91177475 243.3404718 115.98370575 243.3528186 117.08811951 243.36553955 C118.57965294 243.3610379 118.57965294 243.3610379 120.10131836 243.35644531 C120.97686874 243.36009094 121.85241913 243.36373657 122.75450134 243.36749268 C125.47968453 242.92149603 126.39888161 242.22372157 128 240 C127.92466753 237.3727086 127.92466753 237.3727086 127 235 C124.53062549 233.76531275 122.88472841 233.86649127 120.12304688 233.85473633 C119.10859497 233.84835648 118.09414307 233.84197662 117.0489502 233.83540344 C115.94998413 233.83429062 114.85101807 233.8331778 113.71875 233.83203125 C112.03211243 233.82703865 112.03211243 233.82703865 110.31140137 233.82194519 C107.93074961 233.81687589 105.55009074 233.81453687 103.16943359 233.81469727 C99.51518137 233.81250909 95.86123008 233.79434854 92.20703125 233.77539062 C89.89843854 233.77245713 87.58984438 233.77047204 85.28125 233.76953125 C84.18228394 233.76234573 83.08331787 233.75516022 81.9510498 233.74775696 C80.9365979 233.75083359 79.922146 233.75391022 78.87695312 233.75708008 C77.98141724 233.75565506 77.08588135 233.75423004 76.16320801 233.75276184 C73.78824075 233.79693326 73.78824075 233.79693326 72 236 Z M72 269 C72.27034634 271.43717258 72.27034634 271.43717258 73 274 C76.72919554 276.48613036 78.69971556 276.25789522 83.15234375 276.265625 C83.84888565 276.26753845 84.54542755 276.2694519 85.26307678 276.27142334 C86.73487713 276.272783 88.20668956 276.26910182 89.6784668 276.26074219 C91.92589427 276.25005519 94.17251951 276.260636 96.41992188 276.2734375 C97.85156426 276.27211555 99.28320614 276.26955242 100.71484375 276.265625 C102.66571899 276.26224121 102.66571899 276.26224121 104.65600586 276.25878906 C107.7494514 276.01938976 109.47476884 275.74387815 112 274 C112.99530794 272.10231241 112.99530794 272.10231241 113 270 C111.27773504 266.75150023 111.27773504 266.75150023 108 266 C103.60372836 265.77199911 99.20514601 265.77172063 94.80371094 265.75976562 C92.63958215 265.75006536 90.47640581 265.71903233 88.3125 265.6875 C86.92969312 265.68096873 85.54687947 265.67571874 84.1640625 265.671875 C82.91061035 265.6625293 81.6571582 265.65318359 80.36572266 265.64355469 C76.78110798 266.02318166 74.89533317 266.91271484 72 269 Z M-36.9375 344 C-40.34707072 348.95937559 -40.18288838 353.53188029 -40.23828125 359.421875 C-40.246353 360.24069153 -40.25442474 361.05950806 -40.26274109 361.90313721 C-40.27655054 363.63462222 -40.28728669 365.3661341 -40.29516602 367.09765625 C-40.30667574 368.85880575 -40.3271117 370.61992065 -40.35668945 372.38085938 C-40.39958597 374.93643705 -40.41556531 377.49098096 -40.42578125 380.046875 C-40.44328934 380.82424011 -40.46079742 381.60160522 -40.47883606 382.40252686 C-40.45693571 387.99650299 -39.44127018 392.48858177 -36 397 C-30.72701954 401.88462213 -25.50617697 402.74907101 -18.53125 402.6640625 C-17.21163269 402.67123795 -17.21163269 402.67123795 -15.86535645 402.67855835 C-14.01650185 402.68194115 -12.16758611 402.67285285 -10.31884766 402.65185547 C-7.50676702 402.62506447 -4.69867689 402.65165643 -1.88671875 402.68359375 C-0.08072045 402.68028936 1.72527538 402.67388252 3.53125 402.6640625 C4.36168823 402.67418365 5.19212646 402.68430481 6.04772949 402.69473267 C12.08836811 402.57489088 16.50903503 401.15934899 21 397 C25.03337653 391.71817919 25.58766023 386.36177489 25.49609375 379.8984375 C25.4982766 378.6382933 25.4982766 378.6382933 25.50050354 377.35269165 C25.49885421 375.58958441 25.48740211 373.8264613 25.46655273 372.06347656 C25.43750029 369.37502651 25.44598322 366.68854104 25.45898438 364 C25.45274849 362.27863632 25.44435873 360.55727881 25.43359375 358.8359375 C25.43652939 358.03892426 25.43946503 357.24191101 25.44248962 356.42074585 C25.34686655 350.73248272 24.25064182 346.49084953 20.31640625 342.13671875 C19.73761719 341.65847656 19.15882812 341.18023437 18.5625 340.6875 C17.98628906 340.19636719 17.41007812 339.70523437 16.81640625 339.19921875 C12.57752809 336.40064758 7.71482704 336.80929489 2.796875 336.76171875 C1.60194427 336.74961113 1.60194427 336.74961113 0.38287354 336.73725891 C-1.30153244 336.72345112 -2.98596602 336.71271424 -4.67041016 336.70483398 C-6.38305938 336.69332555 -8.09567306 336.6728916 -9.80810547 336.64331055 C-12.29419101 336.6003974 -14.77921393 336.58443255 -17.265625 336.57421875 C-18.02111633 336.55671066 -18.77660767 336.53920258 -19.55499268 336.52116394 C-26.47742132 336.54901125 -32.29103536 338.73591423 -36.9375 344 Z M72 351 C72.16442277 354.06991681 72.16442277 354.06991681 73 357 C75.25248913 358.12624457 76.53394065 358.14896997 79.03491211 358.19287109 C79.86594955 358.20893402 80.696987 358.22499695 81.5532074 358.24154663 C85.34560346 358.28594338 89.13782507 358.32703858 92.93041992 358.35009766 C94.93346757 358.36668537 96.93645535 358.39401224 98.93920898 358.43212891 C101.82306699 358.48674293 104.70553914 358.50874469 107.58984375 358.5234375 C108.48678452 358.54610687 109.38372528 358.56877625 110.30784607 358.59213257 C112.64841557 358.58413593 114.72416148 358.54794642 117 358 C119.1773616 355.64218828 119.1773616 355.64218828 120 353 C119.15968571 350.83649771 119.15968571 350.83649771 117 349 C113.80108322 348.38257704 110.61940131 348.48825624 107.37109375 348.5390625 C106.42565201 348.53997894 105.48021027 348.54089539 104.50611877 348.5418396 C102.50801572 348.54788105 100.50992196 348.56364334 98.51196289 348.58837891 C95.44578877 348.62490127 92.38082207 348.62939825 89.31445312 348.62890625 C87.37498951 348.63873656 85.43553411 348.65039318 83.49609375 348.6640625 C82.11483559 348.66740097 82.11483559 348.66740097 80.70567322 348.67080688 C79.42908592 348.68994644 79.42908592 348.68994644 78.12670898 348.70947266 C77.37630844 348.71709625 76.6259079 348.72471985 75.85276794 348.73257446 C73.75404416 348.84673029 73.75404416 348.84673029 72 351 Z M72 384 C72.09111938 386.53951544 72.09111938 386.53951544 73 389 C76.48087435 391.3205829 77.85759922 391.25716433 81.96850586 391.2746582 C83.19665512 391.28419022 84.42480438 391.29372223 85.69017029 391.30354309 C87.0317284 391.30328166 88.37328652 391.30234459 89.71484375 391.30078125 C91.09103017 391.30466863 92.46721538 391.30900338 93.84339905 391.31376648 C96.7275888 391.32122739 99.61165614 391.32093847 102.49584961 391.31567383 C106.18926874 391.30988015 109.88218623 391.32680772 113.57552242 391.3500185 C116.41771873 391.36476126 119.2597944 391.36562683 122.10202217 391.36250877 C123.46356767 391.36302175 124.82511996 391.36825508 126.18662834 391.37832069 C128.09174642 391.39067633 129.99696584 391.38195196 131.90209961 391.37231445 C132.98559189 391.37294388 134.06908417 391.3735733 135.18540955 391.3742218 C138.32068304 390.95736268 139.69092058 390.10632355 142 388 C141.62095792 384.70924004 141.62095792 384.70924004 140 382 C137.95531026 381.89534531 135.90697446 381.86143956 133.85961914 381.85473633 C132.54478043 381.84835648 131.22994171 381.84197662 129.8752594 381.83540344 C128.42855872 381.83387489 126.98185755 381.83276086 125.53515625 381.83203125 C124.06164008 381.8288204 122.58812424 381.82545646 121.11460876 381.82194519 C118.0217922 381.81594748 114.92900361 381.81410594 111.83618164 381.81469727 C107.86686232 381.81479892 103.89772178 381.80114679 99.92844486 381.78392506 C96.88389762 381.77282363 93.83939383 381.77077748 90.79482841 381.77130699 C89.33115459 381.77012406 87.86747975 381.76568484 86.40382576 381.75797462 C84.35916558 381.7482128 82.3144533 381.75230712 80.26977539 381.75708008 C79.10474991 381.75565506 77.93972443 381.75423004 76.73939514 381.75276184 C73.85465677 381.71822036 73.85465677 381.71822036 72 384 Z " fill="#8E6999" transform="translate(98,16)"/>
<path d="M0 0 C2.47515941 2.16766262 4.77078692 4.41845524 7.046875 6.79296875 C7.75199219 7.46714844 8.45710938 8.14132812 9.18359375 8.8359375 C20.16874621 19.98848276 25.1999861 36.22430435 25.484375 51.60546875 C25.34365707 70.14226357 17.99488357 86.58338425 5.046875 99.79296875 C-8.93011459 111.8159712 -25.57050483 117.72965947 -43.94140625 117.171875 C-60.86810716 115.85264275 -75.00981866 108.86333154 -86.953125 96.79296875 C-87.57703125 96.20257813 -88.2009375 95.6121875 -88.84375 95.00390625 C-99.89521825 83.70353106 -104.80999443 67.4111661 -105.390625 51.98046875 C-104.89194332 33.44613302 -98.17502749 17.87569332 -84.953125 4.79296875 C-84.06753906 3.85710937 -84.06753906 3.85710937 -83.1640625 2.90234375 C-60.95799291 -18.81460536 -23.982812 -17.92366241 0 0 Z " fill="#9D709E" transform="translate(358.953125,267.20703125)"/>
<path d="M0 0 C1.72698705 1.49961746 3.43632986 3.01986266 5.125 4.5625 C5.90359375 5.25988281 6.6821875 5.95726562 7.484375 6.67578125 C25.24539106 23.42625674 34.94145132 47.1885549 36.34375 71.328125 C36.98180165 98.44532018 27.51322103 123.27653811 8.97851562 143.16088867 C-5.35774182 157.96350059 -23.64078575 166.99007517 -43.875 170.5625 C-45.7621875 170.9028125 -45.7621875 170.9028125 -47.6875 171.25 C-72.53606198 173.69326865 -98.94991499 167.99890804 -118.67382812 152.11376953 C-138.8279714 134.94071386 -152.48336502 112.84657924 -155.625 86.3125 C-155.72959972 84.73042927 -155.81276878 83.14680305 -155.875 81.5625 C-155.95234375 80.27279297 -155.95234375 80.27279297 -156.03125 78.95703125 C-156.89388206 52.89835453 -147.15625763 28.82685276 -129.875 9.5625 C-129.30136719 8.91796875 -128.72773438 8.2734375 -128.13671875 7.609375 C-95.2715283 -27.21674567 -36.89441615 -29.48465893 0 0 Z M-106.875 18.5625 C-107.59300781 19.11679687 -108.31101562 19.67109375 -109.05078125 20.2421875 C-122.7320481 31.34659438 -130.54177273 48.41158264 -133.5625 65.4375 C-135.51344885 85.90170812 -130.85035133 105.37675246 -117.875 121.5625 C-117.21886719 122.39394531 -116.56273437 123.22539062 -115.88671875 124.08203125 C-103.69248028 138.59473553 -86.51837342 146.96863935 -67.875 149.5625 C-45.59474585 150.82181871 -26.27345727 144.54594664 -9.25 129.9375 C4.56089128 116.93553236 13.25382129 98.97566173 14.328125 79.96875 C14.60151793 57.18600602 7.27781034 38.56038382 -8.24609375 22.0390625 C-23.10390058 7.74238794 -42.64634368 1.13528966 -63.0625 1.3515625 C-79.69700267 2.27191408 -94.00634506 8.12845546 -106.875 18.5625 Z " fill="#9D6F9E" transform="translate(378.875,243.4375)"/>
<path d="M0 0 C4.40361757 3.2526815 8.13054523 7.12500545 11.9296875 11.04296875 C13.05153059 12.17212994 14.17494076 13.29973615 15.29983521 14.42585754 C17.64696566 16.78372504 19.9803598 19.15410189 22.30371094 21.53540039 C25.27408429 24.57936889 28.26790484 27.59883788 31.27119255 30.61030102 C33.58884662 32.93656256 35.89812099 35.27098853 38.20453262 37.60839272 C39.30579273 38.72417231 40.4085656 39.83846101 41.51290512 40.95119286 C43.0566842 42.51098739 44.58998456 44.08038045 46.12060547 45.65307617 C47.42890823 46.98758064 47.42890823 46.98758064 48.76364136 48.3490448 C53.84289826 54.36994066 54.48499034 59.29167396 54.28515625 66.9375 C53.69340069 73.29279254 50.73247834 76.92786748 46 81 C40.45957 85.01681175 33.57793747 84.98397887 27 84 C19.53102984 80.6380771 14.14772706 74.67758842 8.4140625 68.98828125 C7.30551753 67.89447851 6.19690431 66.80074494 5.08822632 65.70707703 C2.77469705 63.42043318 0.46787567 61.12724169 -1.83544922 58.83032227 C-4.77932226 55.8973419 -7.74780845 52.99068183 -10.72298241 50.0895052 C-13.01856733 47.8424078 -15.29586681 45.57743513 -17.56859207 43.30724144 C-18.65523169 42.22780392 -19.74845237 41.15494746 -20.84843063 40.08910561 C-31.1717344 30.06222849 -31.1717344 30.06222849 -31.31390381 22.91685486 C-30.27279202 16.55930156 -25.54042265 12.06532491 -21.125 7.75 C-20.62097656 7.234375 -20.11695313 6.71875 -19.59765625 6.1875 C-13.88202899 0.51572665 -8.17319664 -2.91712224 0 0 Z " fill="#9D709E" transform="translate(442,412)"/>
<path d="M0 0 C0.10161146 7.70455635 0.17155479 15.40893918 0.21972656 23.11401367 C0.23981327 25.73387103 0.26708789 28.35368372 0.30175781 30.97338867 C0.35040279 34.74409017 0.37299908 38.51419767 0.390625 42.28515625 C0.41127014 43.45208511 0.43191528 44.61901398 0.45318604 45.82130432 C0.45526862 53.40797599 -0.35313972 58.02322815 -5.59765625 63.7421875 C-10.01727329 67.16002468 -12.8773522 68.12613878 -18.3894043 68.11352539 C-19.49031906 68.11344986 -20.59123383 68.11337433 -21.72550964 68.11329651 C-22.91308365 68.10813522 -24.10065765 68.10297394 -25.32421875 68.09765625 C-26.54075638 68.0962413 -27.75729401 68.09482635 -29.01069641 68.09336853 C-32.9029891 68.08776312 -36.79522464 68.07520967 -40.6875 68.0625 C-43.32356688 68.0574857 -45.95963466 68.05292267 -48.59570312 68.04882812 C-55.06382164 68.03779193 -61.53190674 68.0210485 -68 68 C-66.34270805 63.71545697 -63.12257016 60.84180194 -59.9296875 57.67089844 C-59.30837952 57.04608582 -58.68707153 56.42127319 -58.04693604 55.77752686 C-55.99462306 53.71642033 -53.9350916 51.6627046 -51.875 49.609375 C-50.44746084 48.18048885 -49.02021871 46.75130591 -47.59326172 45.32183838 C-44.60382889 42.32945779 -41.6108099 39.34072313 -38.61523438 36.35449219 C-34.76801052 32.51868321 -30.92986132 28.673939 -27.09432983 24.82644272 C-24.15037089 21.87527344 -21.20168569 18.92886374 -18.25152588 15.98389435 C-16.83381134 14.56751753 -15.41759076 13.14964377 -14.00286865 11.73027802 C-12.03013601 9.75249153 -10.05115017 7.78118771 -8.0703125 5.81152344 C-7.48219788 5.21936035 -6.89408325 4.62719727 -6.28814697 4.01708984 C-2.22853056 0 -2.22853056 0 0 0 Z " fill="#9D6F9E" transform="translate(89,21)"/>
<path d="M0 0 C1.20348083 -0.00717545 1.20348083 -0.00717545 2.43127441 -0.01449585 C4.12233448 -0.01788817 5.81346071 -0.00873233 7.50439453 0.01220703 C10.08645444 0.03898683 12.66416834 0.01244154 15.24609375 -0.01953125 C16.89323872 -0.01622703 18.54038099 -0.00982052 20.1875 0 C20.95533813 -0.01012115 21.72317627 -0.02024231 22.51428223 -0.03067017 C26.28207813 0.05132272 28.43072739 0.55486094 31.57983398 2.66430664 C34.27418785 6.67758412 34.30179974 9.5913898 34.22265625 14.32421875 C34.22506821 15.15110703 34.22748016 15.9779953 34.22996521 16.8299408 C34.22898855 18.5723044 34.21563811 20.31469973 34.19067383 22.05688477 C34.15630963 24.72193776 34.17003539 27.38368291 34.18945312 30.04882812 C34.18255569 31.74480576 34.17288423 33.44077485 34.16015625 35.13671875 C34.16511612 35.93159195 34.17007599 36.72646515 34.17518616 37.54542542 C34.10405351 40.88884066 33.83102446 43.2654227 32.10717773 46.16162109 C28.38641669 48.38576519 25.07656423 48.25626411 20.8125 48.23046875 C19.96200073 48.23666733 19.11150146 48.24286591 18.23522949 48.24925232 C16.43987166 48.25634554 14.64444798 48.25318509 12.84912109 48.24047852 C10.10261053 48.22660725 7.35950431 48.26069297 4.61328125 48.29882812 C2.86718667 48.29977931 1.12108782 48.29792053 -0.625 48.29296875 C-1.44488403 48.30622696 -2.26476807 48.31948517 -3.10949707 48.33314514 C-6.99589958 48.26968899 -8.81782477 48.13554571 -11.91967773 45.65014648 C-13.82553321 41.82184654 -13.99970544 38.44530218 -13.97265625 34.2578125 C-13.97885483 33.45549194 -13.98505341 32.65317139 -13.99143982 31.82653809 C-13.99852243 30.13551035 -13.99539116 28.44441266 -13.98266602 26.75341797 C-13.9687902 24.17154301 -14.00289948 21.5932884 -14.04101562 19.01171875 C-14.04196684 17.36458245 -14.04010789 15.71744163 -14.03515625 14.0703125 C-14.04841446 13.30247437 -14.06167267 12.53463623 -14.07533264 11.74353027 C-14.0098796 7.9611913 -13.52157821 5.83493672 -11.39233398 2.68017578 C-7.58160185 0.1072851 -4.45032356 -0.05866134 0 0 Z M-4.40625 7.6640625 C-6.60314833 9.47776267 -6.60314833 9.47776267 -6.8125 11.98828125 C-6.2518595 15.68096146 -4.60945423 16.96108078 -1.90625 19.4765625 C-0.65328125 20.66185547 -0.65328125 20.66185547 0.625 21.87109375 C1.2746875 22.46277344 1.924375 23.05445313 2.59375 23.6640625 C1.19976633 26.88148946 -0.42572347 28.78017776 -3.03125 31.1015625 C-5.91697551 33.80318521 -5.91697551 33.80318521 -6.84375 37.6015625 C-6.699375 38.2821875 -6.555 38.9628125 -6.40625 39.6640625 C-4.75625 40.3240625 -3.10625 40.9840625 -1.40625 41.6640625 C-0.87515625 41.19355469 -0.3440625 40.72304688 0.203125 40.23828125 C0.90953125 39.61566406 1.6159375 38.99304688 2.34375 38.3515625 C3.03984375 37.73667969 3.7359375 37.12179687 4.453125 36.48828125 C6.44489506 34.79091516 8.48273915 33.20928441 10.59375 31.6640625 C11.19703125 32.30214844 11.8003125 32.94023437 12.421875 33.59765625 C13.22109375 34.42394531 14.0203125 35.25023437 14.84375 36.1015625 C15.63265625 36.92527344 16.4215625 37.74898438 17.234375 38.59765625 C19.49493292 40.57751575 20.61590258 41.51264653 23.59375 41.6640625 C25.86519074 39.80974163 25.86519074 39.80974163 27.59375 37.6640625 C26.24890286 33.62244295 24.5432338 31.27728096 21.46875 28.3515625 C20.74429688 27.65417969 20.01984375 26.95679688 19.2734375 26.23828125 C18.71914062 25.71878906 18.16484375 25.19929688 17.59375 24.6640625 C17.98046875 24.21675781 18.3671875 23.76945312 18.765625 23.30859375 C21.77765075 19.8119599 24.73696031 16.28998787 27.59375 12.6640625 C26.93375 11.0140625 26.27375 9.3640625 25.59375 7.6640625 C23.29684921 7.28637893 23.29684921 7.28637893 20.59375 7.6640625 C18.04447503 9.60900736 18.04447503 9.60900736 15.78125 12.1640625 C14.59595703 13.41703125 14.59595703 13.41703125 13.38671875 14.6953125 C12.79503906 15.345 12.20335938 15.9946875 11.59375 16.6640625 C7.51933524 14.86331669 4.78101724 12.17531435 1.59375 9.125 C-0.53179452 7.27082356 -0.53179452 7.27082356 -4.40625 7.6640625 Z " fill="#4E4F82" transform="translate(80.40625,361.3359375)"/>
<path d="M0 0 C3.56764285 1.51376081 5.83706287 3.60513129 8.546875 6.3515625 C9.39121094 7.20234375 10.23554688 8.053125 11.10546875 8.9296875 C12.41451172 10.26386719 12.41451172 10.26386719 13.75 11.625 C14.63816406 12.5221875 15.52632813 13.419375 16.44140625 14.34375 C18.63216969 16.55807004 20.81812763 18.77692435 23 21 C21.5735422 24.2586636 19.83295838 26.4024854 17.3046875 28.890625 C16.58925781 29.59960938 15.87382812 30.30859375 15.13671875 31.0390625 C14.39035156 31.76867187 13.64398438 32.49828125 12.875 33.25 C11.74384766 34.36761719 11.74384766 34.36761719 10.58984375 35.5078125 C8.73099228 37.3431342 6.86762995 39.1736191 5 41 C1.46183947 39.48968674 -0.83366147 37.42406644 -3.546875 34.71875 C-4.39121094 33.87699219 -5.23554688 33.03523438 -6.10546875 32.16796875 C-6.97816406 31.28753906 -7.85085938 30.40710938 -8.75 29.5 C-9.63816406 28.61957031 -10.52632813 27.73914063 -11.44140625 26.83203125 C-12.28058594 25.99027344 -13.11976563 25.14851563 -13.984375 24.28125 C-14.75491211 23.50845703 -15.52544922 22.73566406 -16.31933594 21.93945312 C-18 20 -18 20 -18 18 C-16.54211585 16.78111325 -15.0312314 15.62536284 -13.5 14.5 C-8.07360007 10.29492655 -4.04484169 5.51363896 0 0 Z " fill="#9D6F9E" transform="translate(401,383)"/>
</svg>
